<?xml version="1.0" standalone="no"?>
<!DOCTYPE svg PUBLIC "-//W3C//DTD SVG 1.1//EN" "http://www.w3.org/Graphics/SVG/1.1/DTD/svg11.dtd" >
<svg>
<metadata>
Created by FontForge 20110222 at Thu Oct 17 05:42:42 2013
 By Orthosie Webhosting
(c) 1989, 1990, 1995, 2001 Adobe Systems Incorporated. All rights reserved.
</metadata>
<defs>
<font id="MinisterStdBlack" horiz-adv-x="667" >
  <font-face 
    font-family="MinisterStdBlack"
    font-weight="900"
    font-stretch="normal"
    units-per-em="1000"
    panose-1="2 2 10 5 8 3 5 2 3 3"
    ascent="796"
    descent="-204"
    x-height="480"
    cap-height="724"
    bbox="-167 -282 1156 995"
    underline-thickness="50"
    underline-position="-50"
    unicode-range="U+0020-FB02"
  />
<missing-glyph horiz-adv-x="500" 
d="M0 0v700h500v-700h-500zM250 395l170 255h-340zM280 350l170 -255v510zM80 50h340l-170 255zM50 605v-510l170 255z" />
    <glyph glyph-name="f_i" unicode="fi" horiz-adv-x="722" 
d="M283 470h235q55 0 77 18h61q-9 -37 -9 -134v-200q0 -59 12 -79.5t45 -22.5v-62q-5 0 -47.5 5t-106.5 5q-63 0 -107.5 -5t-53.5 -5v62q34 5 48 22.5t14 57.5v186q0 48 -17 65t-60 17h-91v-244q0 -57 13 -78t46 -26v-62q-9 0 -52 5t-105 5t-105 -5t-52 -5v62q32 1 45.5 24
t13.5 86v238h-59v70h59q0 142 81 234t222 92q101 0 161.5 -30t60.5 -90q0 -29 -25.5 -51.5t-54.5 -22.5q-28 0 -54 19t-43 41t-37 41t-37 19q-40 0 -59 -34.5t-19 -123.5v-94z" />
    <glyph glyph-name="f_l" unicode="fl" horiz-adv-x="722" 
d="M579 746l29 50h70q-27 -70 -27 -211v-437q0 -51 11 -68.5t42 -27.5v-62q-10 0 -53.5 5t-103.5 5q-61 0 -103.5 -5t-50.5 -5v62q36 9 47.5 27.5t14.5 74.5v409q0 155 -81 155q-75 0 -86 -123v-125h109v-70h-109v-244q0 -57 13 -79.5t44 -24.5v-62q-9 0 -52.5 5t-105.5 5
q-63 0 -106.5 -5t-52.5 -5v62q32 1 48 25t16 85v238h-64v70h64q2 137 86 231.5t219 94.5q48 0 87.5 -12t94.5 -38z" />
    <glyph glyph-name=".notdef" horiz-adv-x="500" 
d="M0 0v700h500v-700h-500zM250 395l170 255h-340zM280 350l170 -255v510zM80 50h340l-170 255zM50 605v-510l170 255z" />
    <glyph glyph-name=".null" horiz-adv-x="0" 
 />
    <glyph glyph-name="nonmarkingreturn" horiz-adv-x="333" 
 />
    <glyph glyph-name="space" unicode=" " horiz-adv-x="333" 
 />
    <glyph glyph-name="exclam" unicode="!" horiz-adv-x="370" 
d="M211 204h-52q0 103 -29 216.5t-70 180.5q14 42 48 76.5t77 56.5q43 -22 77 -56.5t48 -76.5q-41 -67 -70 -180.5t-29 -216.5zM185 172q40 0 70.5 -28t30.5 -67t-30.5 -67t-70.5 -28t-70.5 28t-30.5 67t30.5 67t70.5 28z" />
    <glyph glyph-name="quotedbl" unicode="&#x22;" horiz-adv-x="333" 
d="M40 447q-3 42 -8 96t-7.5 85t-2.5 43q0 63 55 63t55 -63q0 -12 -2.5 -43t-7.5 -85t-8 -96q-1 -20 -12 -29.5t-25 -9.5t-25 9.5t-12 29.5zM218 447q-3 42 -8 96t-7.5 85t-2.5 43q0 63 55 63t55 -63q0 -12 -2.5 -43t-7.5 -85t-8 -96q-1 -20 -12 -29.5t-25 -9.5t-25 9.5
t-12 29.5z" />
    <glyph glyph-name="numbersign" unicode="#" 
d="M555 288l-4 -94h-88l-27 -194h-102l27 194h-92l-28 -194h-101l27 194h-86l4 94h96l16 114h-86l4 94h96l27 194h102l-27 -194h92l28 194h101l-27 -194h78l-4 -94h-87l-17 -114h78zM392 402h-93l-16 -114h93z" />
    <glyph glyph-name="dollar" unicode="$" 
d="M156 238l44 -29q-15 -20 -15 -49q0 -42 31 -71t78 -31v205q-120 51 -170.5 105t-50.5 116q0 89 68 149.5t153 60.5v90h62v-90q52 -1 119.5 -30.5t70.5 -29.5q9 0 23 5l21 -31q-24 -22 -61.5 -70t-47.5 -60l-37 27q11 13 11 39q0 32 -31 60t-68 30v-203
q145 -60 194.5 -106.5t49.5 -110.5q0 -94 -79 -155.5t-165 -58.5v-101h-62v101q-41 0 -106.5 38t-86.5 38q-15 0 -29 -8l-30 38q83 75 114 132zM356 239v-181q41 1 70.5 23.5t29.5 58.5q0 56 -100 99zM294 461v175q-41 0 -66 -21t-25 -52q0 -28 18.5 -50.5t72.5 -51.5z" />
    <glyph glyph-name="percent" unicode="%" horiz-adv-x="870" 
d="M222 656q-26 0 -37 -35.5t-11 -110.5t11 -110.5t37 -35.5t37 35.5t11 110.5t-11 110.5t-37 35.5zM688 712l-418 -734h-86l418 734h86zM648 326q-26 0 -37 -35.5t-11 -110.5t11 -110.5t37 -35.5t37 35.5t11 110.5t-11 110.5t-37 35.5zM222 712q87 0 131.5 -57t44.5 -145
t-44.5 -145t-131.5 -57t-131.5 57t-44.5 145t44.5 145t131.5 57zM648 382q87 0 131.5 -57t44.5 -145t-44.5 -145t-131.5 -57t-131.5 57t-44.5 145t44.5 145t131.5 57z" />
    <glyph glyph-name="ampersand" unicode="&#x26;" horiz-adv-x="907" 
d="M410 74q52 0 78 25q-44 65 -193 250q-64 -42 -64 -111q0 -71 53 -117.5t126 -46.5zM876 463v-62q-33 0 -55 -22.5t-34 -54.5t-43 -78t-76 -81q39 -65 91 -65q24 0 47.5 16.5t38.5 39.5l37 -29q-64 -149 -205 -149q-54 0 -84 14.5t-66 57.5q-105 -72 -248 -72
q-95 0 -161.5 43.5t-66.5 133.5q0 157 219 243q-27 49 -27 97q0 78 61.5 138.5t149.5 60.5q68 0 118.5 -30t50.5 -82q0 -35 -25.5 -55t-59.5 -20q-24 0 -41 14.5t-21 37.5q21 0 21 22q0 18 -18.5 30.5t-41.5 12.5q-31 0 -51.5 -17t-20.5 -47q0 -24 23.5 -54t58 -61
t88.5 -93.5t100 -135.5q61 57 61 137q0 24 -16 36t-54 12v62q22 0 63.5 -4t61.5 -4t61.5 4t63.5 4z" />
    <glyph glyph-name="quotesingle" unicode="'" horiz-adv-x="222" 
d="M74 447q-3 42 -8 96t-7.5 85t-2.5 43q0 63 55 63t55 -63q0 -12 -2.5 -43t-7.5 -85t-8 -96q-1 -20 -12 -29.5t-25 -9.5t-25 9.5t-12 29.5z" />
    <glyph glyph-name="parenleft" unicode="(" horiz-adv-x="426" 
d="M372 -232h-70q-254 225 -254 493q0 304 269 493h61q-71 -116 -103.5 -229t-32.5 -250q0 -123 35 -267t95 -240z" />
    <glyph glyph-name="parenright" unicode=")" horiz-adv-x="426" 
d="M54 754h70q254 -225 254 -493q0 -304 -269 -493h-61q71 116 103.5 229t32.5 250q0 123 -35 267t-95 240z" />
    <glyph glyph-name="asterisk" unicode="*" 
d="M320 796h39l54 -111l-34 -53q-14 -1 -23 -14.5t-9 -25.5q0 -14 9.5 -23t23.5 -9q31 0 31 36q0 10 -5 20l41 50l125 -31l8 -33l-84 -89l-64 11q-13 26 -35 26q-28 0 -28 -33q0 -31 37 -31q13 0 22 9l56 -23l16 -126l-30 -17l-110 54l-10 52q20 9 20 29q0 17 -10.5 27
t-27.5 10q-13 0 -22 -12t-9 -25q0 -16 17 -29l-3 -53l-110 -60l-32 17l9 117l57 36q5 -10 22 -10q14 0 24 9.5t10 23.5q0 35 -37 35q-10 0 -17.5 -8t-7.5 -19l-57 -17l-90 91l8 38l120 21l52 -54q-3 -8 -3 -14q0 -12 8.5 -20t20.5 -8q15 0 26 9.5t11 23.5q0 32 -39 32
l-33 54z" />
    <glyph glyph-name="plus" unicode="+" horiz-adv-x="600" 
d="M236 299v171h128v-171h171v-128h-171v-171h-128v171h-171v128h171z" />
    <glyph glyph-name="comma" unicode="," horiz-adv-x="333" 
d="M70 -158v48q103 9 103 118q-18 -14 -46 -14q-29 0 -45.5 22t-16.5 55q0 41 29.5 71t70.5 30q47 0 74.5 -31.5t27.5 -80.5q0 -92 -57 -153t-140 -65z" />
    <glyph glyph-name="hyphen" unicode="-" horiz-adv-x="389" 
d="M43 159v152h304v-152h-304z" />
    <glyph glyph-name="period" unicode="." horiz-adv-x="333" 
d="M166 172q40 0 70.5 -28t30.5 -67t-30.5 -67t-70.5 -28t-70.5 28t-30.5 67t30.5 67t70.5 28z" />
    <glyph glyph-name="slash" unicode="/" horiz-adv-x="333" 
d="M242 734h136l-288 -756h-136z" />
    <glyph glyph-name="zero" unicode="0" 
d="M333 40q41 0 62 68t21 237t-21 237t-62 68t-62 -68t-21 -237t21 -237t62 -68zM333 -22q-54 0 -105.5 22.5t-94.5 65.5t-69 115.5t-26 163.5t26 163.5t69 115.5t94.5 65.5t105.5 22.5t105.5 -22.5t94.5 -65.5t69 -115.5t26 -163.5t-26 -163.5t-69 -115.5t-94.5 -65.5
t-105.5 -22.5z" />
    <glyph glyph-name="one" unicode="1" 
d="M410 724h61q-15 -110 -15 -154v-382q0 -88 24 -109t118 -21v-70q-13 0 -80 6t-163 6t-163 -6t-80 -6v70h56q49 0 68.5 32.5t19.5 97.5v292q0 64 -51 64q-14 0 -29 -2t-34 -5.5t-29 -4.5l-9 62q94 20 169.5 48.5t136.5 81.5z" />
    <glyph glyph-name="two" unicode="2" 
d="M51 -22l-23 51q175 129 257 231.5t82 211.5q0 62 -34.5 107t-90.5 45q-39 0 -67.5 -24.5t-28.5 -62.5q0 -33 20 -46q-20 -34 -60 -34q-34 0 -50 23t-16 56q0 66 70.5 121t195.5 55q116 0 192.5 -56t76.5 -154q0 -41 -15.5 -80t-37 -67.5t-58 -60t-64 -51t-70 -48
t-63.5 -43.5l2 -2h161q53 0 79 18t41 52l52 -21q-8 -27 -51.5 -114t-43.5 -115q-39 30 -113 30h-241q-60 0 -102 -22z" />
    <glyph glyph-name="three" unicode="3" 
d="M241 352l-13 56q56 3 96 33t40 84q0 51 -31 83t-81 32q-34 0 -58.5 -22t-24.5 -56q0 -28 14 -42q-20 -28 -55 -28q-27 0 -44 18t-17 45q0 63 69.5 110t189.5 47q105 0 165.5 -45t60.5 -118q0 -64 -46.5 -100t-113.5 -44v-2q88 -1 145.5 -48t57.5 -133q0 -103 -92 -173.5
t-244 -70.5q-100 0 -158.5 32t-58.5 93q0 27 18 47t45 20q29 0 49 -20q-10 -12 -10 -32q0 -32 28.5 -53t70.5 -21q66 0 105 47t39 114q0 88 -38 117.5t-108 29.5z" />
    <glyph glyph-name="four" unicode="4" 
d="M534 671v-389q61 0 92 24v-168q-31 24 -92 24v-52q0 -71 42 -104l-6 -16q-73 10 -130 10t-130 -10l-4 16q26 22 34 59t8 97h-207q-58 0 -126 -15q-2 45 6 63.5t48 67.5q299 373 327 416q7 11 11 18h135q-8 -32 -8 -41zM346 530l-192 -248h194v248h-2z" />
    <glyph glyph-name="five" unicode="5" 
d="M170 299l-44 35q9 26 10.5 52.5t1.5 120.5q0 149 -12 205h72q22 -10 53 -14q22 -2 89 -2q120 0 221 38q-13 -99 -80 -144q-59 -40 -177 -40q-50 0 -96 15v-153q74 49 167 49q96 0 164 -64.5t68 -159.5q0 -119 -95 -189t-249 -70q-88 0 -145.5 34.5t-57.5 88.5
q0 27 18 48.5t45 21.5q28 0 47 -16q-6 -18 -6 -31q0 -35 27.5 -59.5t63.5 -24.5q68 0 106 52t38 120q0 61 -30 104t-88 43q-66 0 -111 -60z" />
    <glyph glyph-name="six" unicode="6" 
d="M413 460q86 0 149 -65t63 -151q0 -121 -82 -193.5t-204 -72.5q-133 0 -212 94t-79 230q0 77 25 150.5t70 131.5t114 93t149 35q84 0 127.5 -29.5t43.5 -67.5q0 -25 -19 -42t-40 -17q-17 0 -33 8q2 12 2 16q0 30 -25.5 50t-57.5 20q-69 0 -120.5 -67t-51.5 -164
q0 -26 2 -38q76 79 179 79zM441 152q0 111 -31.5 161.5t-71.5 50.5q-33 0 -55.5 -29t-22.5 -83q0 -94 33 -153t70 -59q33 0 55.5 29t22.5 83z" />
    <glyph glyph-name="seven" unicode="7" 
d="M260 -43h-82l214 581h-158q-50 0 -72 -20t-22 -66h-54q0 30 4 89.5t4 89.5q0 46 -12 97q44 -17 126 -25q69 -7 153 -7q232 0 273 24l33 -54q-27 -13 -103.5 -146t-303.5 -563z" />
    <glyph glyph-name="eight" unicode="8" 
d="M231 298q-60 -62 -60 -106q0 -69 41.5 -110.5t103.5 -41.5q52 0 89 29.5t37 82.5q0 22 -13.5 41.5t-41 35.5t-49 26t-58.5 24t-49 19zM183 323q-50 24 -82 67.5t-32 96.5q0 105 73.5 165t191.5 60q47 0 90.5 -10.5t82.5 -31.5t62.5 -59.5t23.5 -88.5q0 -42 -29 -76.5
t-71 -47.5q127 -61 127 -181q0 -105 -78 -172t-221 -67q-129 0 -201.5 53t-72.5 132q0 62 37 102.5t99 57.5zM441 421q28 44 28 90q0 59 -33.5 99t-89.5 40q-54 0 -81.5 -22.5t-27.5 -61.5q0 -23 12.5 -42.5t38 -35t46.5 -25t57 -23t50 -19.5z" />
    <glyph glyph-name="nine" unicode="9" 
d="M326 712q145 0 220 -94.5t75 -242.5q0 -166 -98.5 -281.5t-259.5 -115.5q-152 0 -152 95q0 27 19 42t47 15q12 0 32 -10q-2 -12 -2 -18q0 -25 21 -43.5t49 -18.5q66 0 112 63.5t46 197.5h-2q-22 -36 -67.5 -58.5t-99.5 -22.5q-101 0 -162.5 61t-61.5 167q0 114 79 189
t205 75zM329 314q84 0 84 127q0 96 -29.5 152.5t-66.5 56.5q-40 0 -64.5 -37.5t-24.5 -110.5q0 -83 30 -135.5t71 -52.5z" />
    <glyph glyph-name="colon" unicode=":" horiz-adv-x="333" 
d="M166 172q40 0 70.5 -28t30.5 -67t-30.5 -67t-70.5 -28t-70.5 28t-30.5 67t30.5 67t70.5 28zM166 478q40 0 70.5 -28t30.5 -67t-30.5 -67t-70.5 -28t-70.5 28t-30.5 67t30.5 67t70.5 28z" />
    <glyph glyph-name="semicolon" unicode=";" horiz-adv-x="333" 
d="M70 -158v48q103 9 103 118q-18 -14 -46 -14q-29 0 -45.5 22t-16.5 55q0 41 29.5 71t70.5 30q47 0 74.5 -31.5t27.5 -80.5q0 -92 -57 -153t-140 -65zM166 478q40 0 70.5 -28t30.5 -67t-30.5 -67t-70.5 -28t-70.5 28t-30.5 67t30.5 67t70.5 28z" />
    <glyph glyph-name="less" unicode="&#x3c;" horiz-adv-x="600" 
d="M535 118v-137l-470 190v128l470 190v-136l-302 -118z" />
    <glyph glyph-name="equal" unicode="=" horiz-adv-x="600" 
d="M535 402v-128h-470v128h470zM535 196v-128h-470v128h470z" />
    <glyph glyph-name="greater" unicode="&#x3e;" horiz-adv-x="600" 
d="M65 -19v137l302 117l-302 118v136l470 -190v-128z" />
    <glyph glyph-name="question" unicode="?" horiz-adv-x="519" 
d="M290 209l-64 -14q-20 40 -52.5 73.5t-51.5 56t-19 45.5q0 43 27.5 70t66.5 39.5t78 23t66.5 30.5t27.5 53q0 38 -28 62t-76 24q-44 0 -70 -18t-26 -44t15 -42q-25 -28 -70 -28q-63 0 -63 71q0 49 53.5 86t133.5 37q109 0 179 -56.5t70 -147.5q0 -49 -17 -84.5
t-42.5 -52.5t-55.5 -30t-55.5 -19.5t-42.5 -18.5t-17 -28q0 -36 33 -88zM247 172q40 0 70.5 -28t30.5 -67t-30.5 -67t-70.5 -28t-70.5 28t-30.5 67t30.5 67t70.5 28z" />
    <glyph glyph-name="at" unicode="@" horiz-adv-x="800" 
d="M355 310q0 -87 43 -87q35 0 69.5 66.5t34.5 144.5q0 49 -36 49q-33 0 -72 -52t-39 -121zM533 505l11 34h84l-59 -258q-3 -21 -3 -24q0 -16 6.5 -30.5t20.5 -14.5q34 0 66.5 66t32.5 133q0 94 -76 166.5t-196 72.5q-45 0 -89 -17t-85 -52t-66.5 -101t-25.5 -152
q0 -113 85 -189.5t191 -76.5q122 0 218 52l10 -75q-117 -61 -227 -61q-102 0 -184 35.5t-129.5 90.5t-72.5 116.5t-25 119.5q0 172 117 283t283 111q153 0 256.5 -92t103.5 -230q0 -59 -23 -118t-71 -101.5t-109 -42.5q-79 0 -99 67h-2q-4 -4 -15.5 -15t-15.5 -14.5
t-14 -11.5t-16.5 -10.5t-17 -6.5t-22 -6t-25.5 -2q-39 -1 -72 32t-33 102q0 38 13.5 83t38.5 88.5t68 72t95 28.5q13 0 23 -2.5t16 -5.5t12 -9.5t8.5 -10t7 -12.5t6.5 -12z" />
    <glyph glyph-name="A" unicode="A" horiz-adv-x="852" 
d="M461 -12v70q80 1 80 45q0 12 -0.5 18.5t-4.5 17.5t-8 20.5t-15.5 36t-22.5 55.5q-36 7 -146 7q-87 0 -117 -4q-39 -108 -39 -134q0 -25 23.5 -43t65.5 -19v-70q-8 0 -49.5 6t-101.5 6t-101.5 -6t-49.5 -6v70q47 3 81 35t67 102q171 371 171 415q0 24 -12 34.5t-39 9.5v70
h87q53 0 126 23t116 23q-7 -16 -7 -54q0 -41 99 -292.5t124 -300.5q20 -39 37.5 -51t51.5 -14v-70q-11 0 -68.5 6t-139.5 6t-139.5 -6t-68.5 -6zM461 328l-93 264l-106 -264q29 -4 97 -4t102 4z" />
    <glyph glyph-name="B" unicode="B" horiz-adv-x="852" 
d="M352 645v-222q20 -2 46 -2q72 0 103 28t31 91q0 53 -32.5 83.5t-89.5 30.5q-27 0 -58 -9zM352 344v-182q0 -48 26 -76t65 -28q58 0 92.5 36.5t34.5 95.5q0 65 -42.5 113t-111.5 48q-37 0 -64 -7zM126 180v352q0 64 -22 91.5t-68 30.5v70q1 0 53.5 -6t90.5 -6
q45 0 127.5 6t152.5 6q150 0 224 -48t74 -126q0 -53 -31.5 -87.5t-74 -48.5t-96.5 -17v-2q254 -42 254 -203q0 -100 -89.5 -152t-232.5 -52q-75 0 -139.5 6t-128.5 6q-59 0 -184 -12v70q46 3 68 30.5t22 91.5z" />
    <glyph glyph-name="C" unicode="C" horiz-adv-x="870" 
d="M761 491h-52q0 81 -49 127t-141 46q-125 0 -184 -83t-59 -224q0 -138 75.5 -222t191.5 -87q63 0 124 45.5t85 105.5h60q-9 -44 -22 -78.5t-18.5 -61.5t-5.5 -80q-49 21 -95 21q-36 0 -89 -11q-64 -11 -124 -11q-201 0 -311.5 98t-110.5 261q0 95 36.5 172t100 125.5
t145.5 74t175 25.5q74 0 142 -19q78 -19 95 -19q22 0 72 13q-15 -28 -26 -114.5t-15 -103.5z" />
    <glyph glyph-name="D" unicode="D" horiz-adv-x="944" 
d="M126 180v352q0 64 -22 91.5t-68 30.5v70q13 0 69.5 -6t92.5 -6q64 0 138.5 6t145.5 6q193 0 309.5 -89.5t116.5 -256.5q0 -95 -36.5 -170.5t-99 -122.5t-144 -72t-174.5 -25q-67 0 -122 6t-97 6q-78 0 -133 -6t-66 -6v70q46 3 68 30.5t22 91.5zM352 645v-442
q0 -79 29.5 -112t102.5 -33q79 0 131.5 73.5t52.5 187.5q0 161 -62 248t-173 87q-23 0 -81 -9z" />
    <glyph glyph-name="E" unicode="E" horiz-adv-x="741" 
d="M126 180v352q0 64 -22 91.5t-68 30.5v70h2q20 0 108 -6t190 -6q192 0 240.5 3t111.5 19q-10 -38 -10 -134q0 -42 -6 -57h-50q0 99 -176 99q-32 0 -94 -10v-226h90q57 0 79.5 21.5t23.5 63.5h52q4 -17 4 -53q0 -12 -2 -36t-2 -33t2 -33t2 -36q0 -36 -4 -53h-52
q-1 45 -23.5 67t-79.5 22h-90v-176q0 -50 31 -70t89 -20q67 0 128 43.5t74 97.5h56q0 -39 -13.5 -112.5t-13.5 -130.5q-66 23 -126 27.5t-285 4.5q-148 0 -214 -6q-14 -1 -23.5 -2.5t-12.5 -2.5t-4 -1h-2v70q46 3 68 30.5t22 91.5z" />
    <glyph glyph-name="F" unicode="F" horiz-adv-x="704" 
d="M352 642v-233q43 -3 89 -3q58 0 82 19.5t24 75.5h54q0 -7 1 -21t1 -21q0 -15 -2.5 -44.5t-2.5 -43.5q0 -20 2.5 -54.5t2.5 -44.5q0 -6 -1 -19t-1 -17h-54q0 58 -23 79t-83 21q-45 0 -89 -3v-153q0 -68 22 -95t84 -27v-70q-96 12 -223 12q-78 0 -133 -6t-66 -6v70
q46 3 68 30.5t22 91.5v352q0 64 -22 91.5t-68 30.5v70h2q23 0 99 -6t168 -6q220 0 275.5 3t110.5 19q-6 -32 -7.5 -110t-2.5 -81h-56q-9 49 -44 74t-109 25h-120z" />
    <glyph glyph-name="G" unicode="G" horiz-adv-x="944" 
d="M545 254v70q27 0 69 -6t110 -6t110 6t69 6v-70q-41 0 -58.5 -26.5t-17.5 -86.5q0 -55 40 -65v-38q-41 0 -98 -15t-139 -30t-182 -15q-183 0 -297.5 94.5t-114.5 266.5q0 174 128.5 284.5t315.5 110.5q85 0 154 -16t88 -16q24 0 54 7q24 7 42 7q-14 -27 -20 -65t-8.5 -94
t-4.5 -71h-62q-1 74 -62.5 126t-137.5 52q-109 0 -178 -90.5t-69 -231.5q0 -126 65.5 -210t185.5 -84q54 0 83 33t29 87q0 51 -21 68.5t-73 17.5z" />
    <glyph glyph-name="H" unicode="H" horiz-adv-x="944" 
d="M128 180v352q0 63 -23 91t-69 31v70q11 0 66 -6t133 -6t133 6t66 6v-70q-45 -3 -62.5 -29.5t-17.5 -92.5v-122q53 -8 118 -8q63 0 118 8v122q0 66 -17.5 92.5t-62.5 29.5v70q11 0 66 -6t133 -6t133 6t66 6v-70q-46 -3 -69 -31t-23 -91v-352q0 -63 23 -91t69 -31v-70
q-11 0 -66 6t-133 6t-133 -6t-66 -6v70q45 3 62.5 29.5t17.5 92.5v144q-55 8 -119 8t-117 -8v-144q0 -66 17.5 -92.5t62.5 -29.5v-70q-11 0 -66 6t-133 6t-133 -6t-66 -6v70q46 3 69 31t23 91z" />
    <glyph glyph-name="I" unicode="I" horiz-adv-x="481" 
d="M353 532v-352q0 -64 20.5 -91.5t65.5 -30.5v-70q-11 0 -66 6t-133 6t-133 -6t-66 -6v70q45 3 65.5 30.5t20.5 91.5v352q0 64 -20.5 91.5t-65.5 30.5v70q11 0 66 -6t133 -6t133 6t66 6v-70q-45 -3 -65.5 -30.5t-20.5 -91.5z" />
    <glyph glyph-name="J" unicode="J" horiz-adv-x="500" 
d="M36 654v70q24 0 93 -6t132 -6q77 0 133.5 6t69.5 6v-70q-48 0 -69 -26t-21 -96v-364q0 -98 -32 -181.5t-82.5 -136t-110 -81.5t-117.5 -29q-51 0 -86.5 27.5t-35.5 63.5q0 31 20.5 52t51.5 21q23 0 46.5 -19.5t41 -39t26.5 -19.5q52 0 52 194v512q0 71 -25 96.5t-87 25.5
z" />
    <glyph glyph-name="K" unicode="K" horiz-adv-x="870" 
d="M354 532v-142q49 49 116 114q69 66 83 83t14 35q0 32 -59 32v70q9 0 55 -6t111 -6t111 6t55 6v-70q-53 0 -84 -11.5t-73 -49.5l-149 -135l218 -287q47 -61 78.5 -83t75.5 -30v-70q-11 0 -66 6t-133 6t-133 -6t-66 -6v70q19 0 26.5 5.5t7.5 18.5q0 12 -72 103
q-57 71 -100 125l-16 -13v-151q0 -36 17.5 -60.5t52.5 -27.5v-70q-10 0 -63.5 6t-129.5 6t-130 -6t-65 -6v70q46 3 69 31t23 91v352q0 63 -23 91t-69 31v70q11 0 66 -6t133 -6t133 6t66 6v-70q-46 -3 -65 -30.5t-15 -91.5z" />
    <glyph glyph-name="L" unicode="L" horiz-adv-x="741" 
d="M674 230h56q0 -35 -19 -113t-19 -149q-51 23 -108.5 27.5t-299.5 4.5q-134 0 -202 -6q-11 -1 -20 -2t-13 -2t-7 -1.5t-4 -0.5h-2v70q46 3 68 30.5t22 91.5v352q0 64 -22 91.5t-68 30.5v70q11 0 68 -6t138 -6t137.5 6t67.5 6v-70q-58 -1 -76.5 -20.5t-18.5 -71.5v-386
q0 -49 31 -77.5t81 -28.5q73 0 121 38.5t89 121.5z" />
    <glyph glyph-name="M" unicode="M" horiz-adv-x="1093" 
d="M25 -12v70q67 0 94.5 50.5t27.5 181.5v227q0 137 -105 137v70q9 0 53.5 -6t107.5 -6t107.5 6t53.5 6q0 -37 20 -77t72.5 -125t95.5 -170q33 57 73.5 124.5t54 91t29.5 56.5t20 52.5t6 47.5q9 0 53.5 -6t107.5 -6t107.5 6t53.5 6v-70q-54 -1 -78 -30.5t-24 -85.5v-330
q0 -90 21 -119t81 -31v-70q-11 0 -70.5 6t-143.5 6t-143.5 -6t-70.5 -6v70q61 2 80.5 25.5t19.5 96.5v328h-4q-59 -99 -94 -164.5t-73 -161t-53 -182.5h-49q-14 49 -26.5 83.5t-34.5 79.5t-38 74t-61 109t-79 142l-2 -2v-298q0 -71 26.5 -100.5t89.5 -29.5v-70q-8 0 -50.5 6
t-102.5 6t-102.5 -6t-50.5 -6z" />
    <glyph glyph-name="N" unicode="N" horiz-adv-x="926" 
d="M31 654v70q8 0 46.5 -6t93.5 -6t93.5 6t46.5 6q3 -14 7.5 -25.5t14.5 -26.5t19.5 -26.5t30.5 -32.5t39 -38t54 -49t66.5 -58.5t85 -74.5t102.5 -90v237q0 65 -23.5 89.5t-90.5 24.5v70q8 0 46 -6t93 -6t93 6t46 6v-70q-55 0 -75.5 -27.5t-20.5 -96.5v-344q0 -32 2.5 -64
t7 -73t6.5 -71h-56q-26 31 -65.5 69.5t-85 80t-160 145.5t-231.5 213v-284q0 -85 27 -114.5t94 -29.5v-70q-8 0 -50.5 6t-102.5 6t-102.5 -6t-50.5 -6v70q65 0 91 50t26 192v168q0 102 -29 144t-88 42z" />
    <glyph glyph-name="O" unicode="O" horiz-adv-x="926" 
d="M650 292q0 161 -58.5 266.5t-152.5 105.5q-77 0 -120 -67.5t-43 -176.5q0 -161 58.5 -266.5t152.5 -105.5q77 0 120 67.5t43 176.5zM36 356q0 90 37.5 163.5t100.5 119.5t142 70.5t165 24.5q172 0 290.5 -100.5t118.5 -277.5q0 -90 -37.5 -163.5t-100.5 -119.5
t-142 -70.5t-165 -24.5q-172 0 -290.5 100.5t-118.5 277.5z" />
    <glyph glyph-name="P" unicode="P" horiz-adv-x="796" 
d="M352 645v-464q0 -72 25.5 -96.5t100.5 -26.5v-70q-12 0 -33.5 3t-73 6t-136.5 3q-78 0 -133 -6t-66 -6v70q46 3 68 30.5t22 91.5v352q0 64 -22 91.5t-68 30.5v70q137 -12 170 -12q61 0 127 6t120 6q148 0 232 -63.5t84 -168.5q0 -104 -74.5 -165t-188.5 -61
q-72 0 -129 27l6 59q26 -16 54 -16q92 0 92 138q0 83 -36.5 131.5t-95.5 48.5q-24 0 -45 -9z" />
    <glyph glyph-name="Q" unicode="Q" horiz-adv-x="926" 
d="M650 292q0 161 -58.5 266.5t-152.5 105.5q-77 0 -120 -67.5t-43 -176.5q0 -161 58.5 -266.5t152.5 -105.5q77 0 120 67.5t43 176.5zM873 -148l30 -54q-123 -80 -225 -80q-60 0 -114 20t-94 49t-76 58t-74.5 49t-75.5 20q-24 0 -44 -7l-23 53q60 32 140 34v2
q-126 32 -203.5 125.5t-77.5 234.5q0 90 37.5 163.5t100.5 119.5t142 70.5t165 24.5q172 0 290.5 -100.5t118.5 -277.5q0 -90 -37 -163t-99 -119t-140 -71t-164 -25v-2q48 -15 114 -52t123.5 -63.5t108.5 -26.5t77 18z" />
    <glyph glyph-name="R" unicode="R" horiz-adv-x="852" 
d="M126 180v352q0 64 -22 91.5t-68 30.5v70q3 0 67 -6t119 -6q33 0 122.5 6t165.5 6q128 0 206.5 -52t78.5 -134q0 -77 -43 -118.5t-121 -58.5q73 -193 130.5 -276.5t118.5 -84.5v-64q-189 0 -299.5 94.5t-168.5 291.5h-60v-142q0 -68 22.5 -92.5t77.5 -29.5v-70q-1 0 -58 6
t-159 6q-78 0 -133 -6t-66 -6v70q46 3 68 30.5t22 91.5zM352 646v-262q85 0 128.5 13t59 39.5t15.5 76.5q0 68 -42.5 105.5t-107.5 35.5q-29 0 -53 -8z" />
    <glyph glyph-name="S" unicode="S" horiz-adv-x="685" 
d="M567 522h-43q0 72 -47.5 109t-132.5 37q-45 0 -70 -20.5t-25 -55.5q0 -30 21 -54t55 -41.5t75.5 -34t82.5 -38t75 -47.5t55 -67t21 -93q0 -116 -89.5 -177.5t-224.5 -61.5q-52 0 -103 11q-44 11 -83 11q-35 0 -63.5 -5.5t-40.5 -4.5q22 20 31.5 60t15 94.5t14.5 85.5h48
q1 -81 60 -133.5t141 -52.5q54 0 83 23.5t29 60.5q0 29 -21 54.5t-55 45t-75 39t-82.5 42.5t-75.5 50t-55 67t-21 88q0 74 41 125t101.5 73t133.5 22q61 0 114.5 -15t60.5 -15q19 0 46 6.5t52 7.5q-22 -48 -28.5 -103t-20.5 -93z" />
    <glyph glyph-name="T" unicode="T" horiz-adv-x="722" 
d="M217 712h288q66 0 109.5 12t88.5 46q-4 -28 -4 -43q0 -6 12 -76.5t12 -125.5h-62q-5 48 -38 82.5t-96 34.5h-53v-440q0 -74 25 -109t88 -35v-70q-12 0 -74.5 6t-151.5 6t-151.5 -6t-74.5 -6v70q63 0 88 35t25 109v440h-53q-63 0 -96 -34.5t-38 -82.5h-62q0 55 12 125.5
t12 76.5q0 15 -4 43q45 -34 88.5 -46t109.5 -12z" />
    <glyph glyph-name="U" unicode="U" horiz-adv-x="926" 
d="M22 654v70q13 -1 82 -6.5t133 -5.5t133 5.5t82 6.5v-70q-60 -3 -79 -21t-19 -75v-283q0 -33 5 -62.5t16.5 -57.5t29 -48t45.5 -32.5t63 -12.5q59 0 103 20t68 54.5t35 73.5t11 84v252q0 60 -28.5 83t-91.5 25v70q13 -1 43 -4.5t54.5 -5.5t49.5 -2t49.5 2t54.5 5.5t43 4.5
v-70q-49 -2 -74.5 -25.5t-25.5 -82.5v-254q0 -148 -99 -231t-255 -83q-162 0 -245.5 87.5t-83.5 249.5q0 31 3.5 94t3.5 95q0 88 -18 117t-88 33z" />
    <glyph glyph-name="V" unicode="V" horiz-adv-x="778" 
d="M-20 654v70q11 0 67 -6t136 -6t136 6t67 6v-70q-39 0 -53.5 -8t-14.5 -25q0 -11 2.5 -21t13 -36.5t24.5 -60t44 -109t64 -166.5q28 69 54.5 132.5t40 95l25.5 59.5t16.5 41t6.5 24t2 22q0 28 -18 40t-62 12v70q7 0 44.5 -6t91.5 -6t91.5 6t44.5 6v-70q-49 0 -67 -14.5
t-54 -84.5q-32 -63 -122.5 -275t-113.5 -290h-121q-67 197 -235 573q-23 53 -45 69t-65 22z" />
    <glyph glyph-name="W" unicode="W" horiz-adv-x="1093" 
d="M350 724v-70q-34 0 -45.5 -6.5t-11.5 -24.5q0 -13 15.5 -57t70.5 -187l40 -104h2q5 16 46 117t52 127q-26 82 -48 109.5t-50 25.5v70q32 0 89 -6t87 -6q39 0 96 6t80 6v-70q-32 0 -45.5 -10.5t-13.5 -32.5q0 -5 0.5 -9t2 -10.5t4 -13.5t7 -21t10 -29t15 -41t20 -53.5
t26 -70.5t31.5 -88h2q77 209 94 259t18 69q1 27 -17.5 39t-72.5 12v70q30 0 78 -6t78 -6q20 0 56.5 6t61.5 6v-70q-51 -3 -72 -22.5t-47 -88.5q-125 -318 -161 -414t-46 -139h-101q-19 66 -43.5 135.5t-58.5 160.5t-49 132q-13 -33 -53.5 -129.5t-65.5 -164t-44 -134.5h-101
q-26 88 -62 185.5t-81.5 212.5t-69.5 181q-18 53 -35.5 67t-59.5 18v70q47 0 99.5 -6t86.5 -6q42 0 95 6t91 6z" />
    <glyph glyph-name="X" unicode="X" horiz-adv-x="833" 
d="M822 724v-70q-94 3 -173 -97l-121 -151l207 -294q36 -52 102 -54v-70q-12 0 -70.5 6t-141.5 6t-142 -6t-70 -6v70q62 0 62 23q0 16 -18 44.5t-106 153.5q-15 -20 -32 -42.5t-27 -35t-21 -27.5t-17 -22.5t-12 -17t-9 -14.5t-5.5 -11.5t-3 -11t-0.5 -10.5q0 -29 75 -29v-70
q-8 0 -51 6t-104 6t-104 -6t-51 -6v70q58 7 98 31t83 77l141 171l-149 216q-37 55 -67.5 75t-93.5 26v70q12 0 71.5 -6t144.5 -6t144.5 6t71.5 6v-70q-32 -1 -43 -5.5t-11 -18.5q0 -17 109 -162q13 18 27 37t22 30.5t17 24t14 19t10 14.5l7.5 12t4.5 8.5t2.5 8t0.5 6.5
q0 26 -67 27v69q8 0 49 -6t99 -6t99 6t49 6z" />
    <glyph glyph-name="Y" unicode="Y" horiz-adv-x="758" 
d="M156 -12v70q56 0 83.5 25t27.5 64v132l-156 281q-30 54 -62 74t-82 20v70q15 0 96.5 -6t146.5 -6q53 0 109 6t74 6v-70q-56 0 -56 -28q0 -7 1 -12t5 -14t8.5 -18t15 -27.5t22 -38t31.5 -54.5t41 -72q27 41 53.5 81t37 55.5t20.5 32t12 25.5t2 22q0 21 -19 34.5t-51 13.5
v70q8 0 46 -6t92 -6t92 6t46 6v-70q-71 0 -135 -93l-164 -244v-191q0 -33 24.5 -50.5t90.5 -17.5v-70q-12 0 -74.5 6t-151.5 6t-151.5 -6t-74.5 -6z" />
    <glyph glyph-name="Z" unicode="Z" horiz-adv-x="778" 
d="M6 -12v63q45 35 80 78.5t81 111.5l268 401h-176q-58 0 -95.5 -30t-48.5 -87h-46q0 34 9 91.5t9 77.5q0 33 -12 64q10 -3 33.5 -12t37.5 -13t37 -10t50 -8.5t59 -2.5h262q106 0 180 18v-64q-27 -19 -57 -59t-86 -123q-9 -15 -14 -22l-263 -392h178q70 0 126.5 47.5
t79.5 113.5h46q0 -32 -22 -122.5t-22 -136.5q-41 28 -152 28h-398q-108 0 -144 -12z" />
    <glyph glyph-name="bracketleft" unicode="[" horiz-adv-x="426" 
d="M84 742h301v-62q-81 0 -107.5 -33.5t-26.5 -116.5v-538q0 -83 26.5 -116.5t107.5 -33.5v-62h-301q13 52 13 212v538q0 160 -13 212z" />
    <glyph glyph-name="backslash" unicode="\" horiz-adv-x="278" 
d="M-84 734h139l306 -756h-139z" />
    <glyph glyph-name="bracketright" unicode="]" horiz-adv-x="426" 
d="M41 742h301q-13 -52 -13 -212v-538q0 -160 13 -212h-301v62q81 0 107.5 33.5t26.5 116.5v538q0 83 -26.5 116.5t-107.5 33.5v62z" />
    <glyph glyph-name="asciicircum" unicode="^" horiz-adv-x="600" 
d="M191 316h-130l180 374h118l180 -374h-131l-108 246z" />
    <glyph glyph-name="underscore" unicode="_" horiz-adv-x="500" 
d="M500 -125h-500v50h500v-50z" />
    <glyph glyph-name="grave" unicode="`" horiz-adv-x="370" 
d="M270 560h-66l-143 81q-45 26 -45 58q0 25 17.5 42t42.5 17q46 0 85 -51z" />
    <glyph glyph-name="a" unicode="a" horiz-adv-x="593" 
d="M573 96l21 -40q-65 -74 -166 -74q-37 0 -66.5 17t-40.5 49q-29 -29 -83 -47.5t-100 -18.5q-56 0 -90 27t-34 81q0 81 87 131t221 63q0 69 -19 97.5t-55 28.5q-38 0 -65 -17.5t-27 -36.5q0 -21 11 -32l-49 -30l-65 87q61 57 126 82t149 25t132 -46t48 -130q0 -42 -6 -87.5
t-6 -83.5q0 -36 9 -49.5t30 -13.5q22 0 38 18zM322 227q-128 -30 -128 -104q0 -23 13.5 -39t35.5 -16q38 0 57 35t22 124z" />
    <glyph glyph-name="b" unicode="b" 
d="M276 356v-158q0 -83 22.5 -118.5t56.5 -35.5q42 0 60 40t18 134q0 85 -25.5 129.5t-69.5 44.5q-46 0 -62 -36zM22 -18v62q31 3 44.5 35.5t13.5 97.5v425q0 28 -15 45t-45 17v62q115 1 221 70h48q-13 -54 -13 -134v-233q75 59 152 59q92 0 150.5 -64.5t58.5 -158.5
q0 -125 -71 -204t-194 -79q-72 0 -128.5 9t-87.5 9q-40 0 -82 -8.5t-52 -9.5z" />
    <glyph glyph-name="c" unicode="c" horiz-adv-x="537" 
d="M479 145l40 -39q-54 -65 -108 -94.5t-133 -29.5q-104 0 -176 63.5t-72 166.5q0 118 86 197t214 79q74 0 117.5 -27t43.5 -66q0 -33 -20 -52.5t-51 -19.5q-23 0 -43.5 16t-32.5 35.5t-29.5 35.5t-36.5 16q-33 0 -58.5 -35.5t-25.5 -94.5q0 -75 53 -135.5t128 -60.5
q65 0 104 45z" />
    <glyph glyph-name="d" unicode="d" 
d="M593 662v-542q0 -38 14 -53t42 -15v-62h-100q-70 0 -106 -14q-25 31 -40 76q-57 -70 -162 -70q-101 0 -156 67t-55 170q0 115 73 192t188 77q64 0 106 -16v130q0 28 -15 45t-45 17v62q115 1 221 70h48q-13 -54 -13 -134zM397 248v160q-36 18 -60 18q-45 0 -74 -45
t-29 -129q0 -69 24 -118.5t58 -49.5q81 0 81 164z" />
    <glyph glyph-name="e" unicode="e" horiz-adv-x="556" 
d="M520 250h-316q4 -70 52 -110t125 -40q53 0 98 47l41 -32q-91 -133 -231 -133q-110 0 -184.5 62.5t-74.5 171.5q0 113 80 192.5t195 79.5q109 0 163 -61.5t52 -176.5zM200 312h168q-2 114 -81 114q-45 0 -66 -35t-21 -79z" />
    <glyph glyph-name="f" unicode="f" horiz-adv-x="407" 
d="M28 -10v62q34 1 50.5 25t16.5 85v238h-67v70h67v12q0 136 89 225t196 89q53 0 94.5 -23.5t41.5 -68.5q0 -27 -19.5 -45t-48.5 -18q-28 0 -61 38.5t-59 38.5q-22 0 -30.5 -21t-8.5 -85q0 -14 1 -55t1 -87h111v-70h-111v-244q0 -60 19 -81.5t76 -22.5v-62q-7 0 -26 2.5
t-62 5t-109 2.5q-63 0 -107.5 -5t-53.5 -5z" />
    <glyph glyph-name="g" unicode="g" horiz-adv-x="593" 
d="M568 482h53q-4 -11 -12 -32.5t-13.5 -38.5t-6.5 -33q-57 0 -78 9q5 -25 5 -47q0 -61 -24 -100.5t-60 -53.5t-77.5 -21.5t-77.5 -7.5t-60 -7.5t-24 -25.5q0 -19 16.5 -26t69.5 -7q24 0 72 2t72 2q164 0 164 -146q0 -87 -84 -148t-234 -61q-121 0 -182 30.5t-61 87.5
q0 41 36 68t82 37v2q-49 6 -79 42t-32 87q80 23 126 76q-53 2 -91 41.5t-38 92.5q0 76 68 130t189 54q75 0 134 -20t84 -20q31 0 63 34zM283 224q32 0 50.5 24.5t18.5 73.5t-22 76.5t-50 27.5q-31 0 -51.5 -24.5t-20.5 -76.5t22.5 -76.5t52.5 -24.5zM281 -198q78 0 117 22
t39 56q0 55 -142 55q-77 0 -106 -15.5t-29 -48.5q0 -27 34.5 -48t86.5 -21z" />
    <glyph glyph-name="h" unicode="h" horiz-adv-x="685" 
d="M673 52v-62q-8 0 -49.5 5t-101.5 5t-101.5 -5t-49.5 -5v64q23 -1 33.5 16.5t10.5 57.5v160q0 84 -67 84q-37 0 -71 -30v-214q0 -40 10.5 -57.5t33.5 -16.5v-64q-8 0 -49.5 5t-100.5 5q-60 0 -101.5 -5t-49.5 -5v62q61 -2 61 103v447q0 28 -15 45t-45 17v62q115 1 221 70
h48q-13 -54 -13 -134l-1 -250q91 76 172 76q80 0 121.5 -45t41.5 -127v-190q0 -39 16 -57t46 -17z" />
    <glyph glyph-name="i" unicode="i" horiz-adv-x="370" 
d="M32 380v62q75 1 121.5 11t99.5 35h48q-13 -54 -13 -134v-200q0 -60 13 -80t51 -22v-62q-9 0 -53.5 5t-107.5 5t-107.5 -5t-53.5 -5v62q34 5 48 22.5t14 57.5v186q0 28 -15 45t-45 17zM64 633q0 50 43 84.5t97 34.5q42 0 65 -20.5t23 -48.5q0 -50 -43 -84.5t-97 -34.5
q-42 0 -65 20.5t-23 48.5z" />
    <glyph glyph-name="j" unicode="j" horiz-adv-x="352" 
d="M287 354v-196q0 -188 -89 -303t-214 -115q-42 0 -71.5 22.5t-29.5 63.5q0 29 16.5 44.5t46.5 15.5q23 0 40.5 -17.5t32 -35t29.5 -17.5q43 0 43 202v282q0 80 -60 80v62q75 1 121.5 11t99.5 35h48q-13 -54 -13 -134zM56 633q0 50 43 84.5t97 34.5q42 0 65 -20.5t23 -48.5
q0 -50 -43 -84.5t-97 -34.5q-42 0 -65 20.5t-23 48.5z" />
    <glyph glyph-name="k" unicode="k" horiz-adv-x="704" 
d="M667 480l4 -62q-25 0 -48 -7.5t-38.5 -16t-55.5 -34t-72 -44.5l189 -216q34 -39 65 -48v-62q-9 0 -53.5 5t-108.5 5t-108.5 -5t-53.5 -5v62q26 2 26 21q0 10 -16 30.5t-91 111.5l-20 -10v-91q0 -31 9.5 -44.5t35.5 -17.5v-62q-8 0 -49.5 5t-100.5 5t-100.5 -5t-49.5 -5
v62q30 1 44.5 28.5t14.5 89.5v432q0 28 -15 45t-45 17v62q115 1 221 70h48q-13 -54 -13 -134v-391l101 66q29 19 41.5 31t12.5 25q0 25 -62 25v62q25 0 78.5 -5t79.5 -5q20 0 62 5t68 5z" />
    <glyph glyph-name="l" unicode="l" horiz-adv-x="370" 
d="M30 -10v62q34 5 48 22.5t14 57.5v470q0 28 -15 45t-45 17v62q115 1 221 70h48q-13 -54 -13 -134v-508q0 -60 13 -80t51 -22v-62q-9 0 -53.5 5t-107.5 5t-107.5 -5t-53.5 -5z" />
    <glyph glyph-name="m" unicode="m" horiz-adv-x="981" 
d="M27 380v62q100 1 201 46h50q-6 -30 -6 -76q95 76 174 76q97 0 137 -84q37 37 80 60.5t79 23.5q79 0 120.5 -45t41.5 -127v-190q0 -40 15.5 -57.5t47.5 -16.5v-62q-11 0 -52.5 5t-98.5 5q-56 0 -96.5 -5t-49.5 -5v64q25 -1 33.5 15.5t8.5 58.5v170q0 84 -57 84
q-37 0 -63 -30v-226q0 -42 8 -58.5t29 -15.5v-62q-7 0 -44.5 5t-91.5 5t-91.5 -5t-44.5 -5v64q23 -1 33 16t10 58v170q0 84 -54 84q-34 0 -66 -30v-224q0 -40 9.5 -57.5t29.5 -16.5v-64q-3 0 -42.5 5t-99.5 5t-101.5 -5t-49.5 -5v62q62 -2 62 103v163q0 28 -15.5 45
t-45.5 17z" />
    <glyph glyph-name="n" unicode="n" horiz-adv-x="685" 
d="M671 52v-62q-8 0 -49.5 5t-101.5 5t-101.5 -5t-49.5 -5v64q23 -1 33.5 16.5t10.5 57.5v160q0 43 -18 63.5t-45 20.5q-33 0 -67 -30v-214q0 -40 10.5 -57.5t33.5 -16.5v-64q-8 0 -49.5 5t-100.5 5q-60 0 -101.5 -5t-49.5 -5v62q61 -2 61 103v163q0 28 -15 45t-45 17v62
q100 1 201 46h54q-6 -30 -6 -76q87 76 170 76q80 0 121.5 -45t41.5 -127v-190q0 -39 16 -57t46 -17z" />
    <glyph glyph-name="o" unicode="o" horiz-adv-x="648" 
d="M346 488q116 0 194 -66t78 -180q0 -128 -89.5 -194t-226.5 -66q-116 0 -194 66t-78 180q0 128 89.5 194t226.5 66zM234 268q0 -92 31 -158t75 -66q34 0 54 40.5t20 117.5q0 92 -31 158t-75 66q-34 0 -54 -40.5t-20 -117.5z" />
    <glyph glyph-name="p" unicode="p" 
d="M282 290v-209q26 -34 84 -37q35 2 58 38t23 114q0 89 -30.5 139.5t-75.5 50.5q-59 0 -59 -96zM282 1v-93q0 -48 22 -73.5t77 -26.5v-62q-9 0 -58.5 5t-119.5 5q-71 0 -120.5 -5t-58.5 -5v62q33 1 47.5 26.5t14.5 81.5v402q0 28 -15.5 45t-46.5 17v62q67 1 111.5 11
t97.5 35h48q-8 -38 -6 -72q77 72 161 72q93 0 147 -70.5t54 -166.5q0 -115 -65.5 -192t-178.5 -77q-49 0 -111 19z" />
    <glyph glyph-name="q" unicode="q" 
d="M555 488h64q-38 -83 -38 -175v-397q0 -61 14 -83.5t48 -24.5v-62q-10 0 -58 5t-117 5t-117 -5t-58 -5v62q48 2 70 30t22 96v94q-62 -46 -148 -46q-95 0 -151 67.5t-56 163.5q0 117 75.5 196t191.5 79q58 0 103 -14t95 -47q42 48 60 61zM389 148v238q-20 23 -36 31.5
t-48 8.5q-35 0 -60 -36.5t-25 -100.5q0 -93 31.5 -152t80.5 -59q57 0 57 70z" />
    <glyph glyph-name="r" unicode="r" horiz-adv-x="519" 
d="M372 52v-62q-6 0 -22.5 2.5t-62.5 5t-123 2.5q-52 0 -84.5 -2.5t-44.5 -5t-15 -2.5v62q34 5 48 22.5t14 57.5v186q0 28 -15 45t-45 17v62q67 1 111.5 11t97.5 35h48q-7 -56 -7 -90q29 29 45.5 43.5t47 30.5t60.5 16q38 0 62.5 -26.5t24.5 -63.5q0 -42 -27 -71t-69 -29
q-23 0 -40.5 16t-31 32t-25.5 16q-17 0 -41 -24v-182q0 -55 19.5 -78.5t74.5 -25.5z" />
    <glyph glyph-name="s" unicode="s" horiz-adv-x="500" 
d="M63 167l41 -3q9 -46 49.5 -86t86.5 -40q59 0 59 49q0 21 -26 39t-63 35t-74.5 37t-63.5 54.5t-26 78.5q0 69 51 113t143 44q56 0 88 -9q38 -9 42 -9q28 0 37 18h39q-9 -35 -13.5 -81.5t-13.5 -66.5h-39q-9 42 -38 69t-75 27q-59 0 -59 -39q0 -19 26 -36t63 -34t74.5 -38
t63.5 -58.5t26 -85.5q0 -81 -61 -122t-156 -41q-40 0 -81 9q-34 9 -48 9q-29 0 -37 -18h-49q17 40 21 99.5t13 85.5z" />
    <glyph glyph-name="t" unicode="t" horiz-adv-x="444" 
d="M76 400h-83v70q84 0 143 50.5t73 133.5h69q-6 -61 -6 -184h137v-70h-137v-206q0 -59 14 -82.5t43 -23.5q36 0 80 49l40 -35q-44 -61 -97 -90.5t-126 -29.5q-80 0 -115 40t-35 130v248z" />
    <glyph glyph-name="u" unicode="u" horiz-adv-x="685" 
d="M12 408v62q165 0 217 18h49q-11 -99 -11 -234q0 -96 14.5 -129t52.5 -33q41 0 64 53v203q0 33 -12 46.5t-39 13.5v62q170 0 205 18h56q-14 -59 -14 -150v-156q0 -62 13 -81.5t50 -20.5v-62q-78 0 -209 -36q-14 2 -29.5 24t-19.5 44q-37 -29 -85.5 -48.5t-90.5 -19.5
q-81 0 -116.5 33.5t-35.5 108.5q0 42 2 115.5t2 107.5q0 33 -14.5 46t-48.5 15z" />
    <glyph glyph-name="v" unicode="v" horiz-adv-x="574" 
d="M-27 418v62q9 0 55.5 -5t113.5 -5t113.5 5t55.5 5v-62q-21 0 -32.5 -9t-11.5 -24q0 -35 88 -207q60 120 73.5 151.5t13.5 48.5q0 37 -59 40v62q6 0 36 -5t73 -5t73 5t36 5v-62q-37 0 -56.5 -21.5t-53.5 -89.5l-163 -325h-94l-148 313q-31 65 -55 92.5t-58 30.5z" />
    <glyph glyph-name="w" unicode="w" horiz-adv-x="889" 
d="M-1 418v62q8 0 50 -5t102 -5q59 0 101 5t51 5v-62q-35 -3 -35 -32q0 -5 1 -10t2 -10.5t4.5 -15t6.5 -18t10 -25.5t13 -32.5t17.5 -43t21.5 -53.5h2l71 187q-18 50 -56 53v62q8 0 48.5 -5t98.5 -5t98.5 5t48.5 5v-62q-39 0 -39 -29q0 -9 1 -16.5t6.5 -23.5t11.5 -32
t20 -56t29 -83h2q20 52 37 92t25 55t12 26t4 19q0 48 -49 48v62q5 0 30 -5t61 -5t61 5t30 5v-62q-23 -4 -37.5 -22.5t-41.5 -73.5l-163 -340h-91l-114 300l-125 -300h-91l-161 360q-33 73 -74 76z" />
    <glyph glyph-name="x" unicode="x" 
d="M17 -10v62q43 1 92 50l120 119l-159 169q-23 25 -48 28v62q9 0 55.5 -5t111.5 -5t111.5 5t55.5 5v-62q-36 0 -36 -26q0 -9 13 -24t62 -62q44 49 54 62t10 22q0 25 -32 27v63q5 0 35 -5t71 -5t71 5t35 5v-62q-56 -7 -121 -72l-82 -82l159 -169q29 -31 54 -43v-62
q-9 0 -55.5 5t-111.5 5t-111.5 -5t-55.5 -5v62q35 3 35 28q0 12 -12.5 28t-65.5 70q-48 -49 -59.5 -65t-11.5 -32q0 -26 42 -29v-62q-6 0 -37.5 5t-75.5 5t-75.5 -5t-37.5 -5z" />
    <glyph glyph-name="y" unicode="y" horiz-adv-x="593" 
d="M314 480v-62q-44 -5 -44 -34q0 -16 17.5 -49.5t87.5 -153.5q78 157 78 190q0 47 -66 47v62q29 0 63 -5t55 -5q19 0 53 5t63 5v-62q-39 -3 -54 -16t-39 -60l-200 -401q-54 -110 -106.5 -155.5t-109.5 -45.5q-52 0 -81.5 23t-29.5 57q0 31 18.5 51.5t50.5 20.5
q25 0 54.5 -24t49.5 -24q14 0 42.5 38.5t54.5 99.5l-200 347q-29 51 -48 68.5t-43 20.5v62q11 0 61.5 -5t105.5 -5q45 0 99.5 5t67.5 5z" />
    <glyph glyph-name="z" unicode="z" horiz-adv-x="593" 
d="M287 408h-85q-108 0 -120 -104h-48q1 33 11.5 101t11.5 94q41 -22 81 -25.5t226 -3.5q99 0 143 6q8 1 14 2t8.5 2t4.5 1.5t4 0.5h2l21 -44q-23 -18 -42 -37t-45 -53t-45.5 -63t-66 -98t-85.5 -125h99q54 0 93 31.5t57 87.5h48q-5 -66 -33 -130.5t-34 -90.5
q-51 29 -94 34.5t-213 5.5q-97 0 -143 -6q-6 -1 -11 -2t-8 -1.5t-4.5 -1t-2.5 -1.5h-1h-2l-24 44q51 45 106.5 118.5t176.5 257.5z" />
    <glyph glyph-name="braceleft" unicode="{" horiz-adv-x="426" 
d="M97 388v210q0 64 18 94.5t78 46t185 15.5v-62q-67 0 -97 -32t-30 -106v-149q0 -64 -16 -96.5t-65 -46.5v-2q49 -14 65 -46.5t16 -96.5v-149q0 -74 30 -106t97 -32v-62q-125 0 -185 15.5t-78 46t-18 94.5v210q0 56 -15.5 84t-60.5 43q45 15 60.5 43t15.5 84z" />
    <glyph glyph-name="bar" unicode="|" horiz-adv-x="222" 
d="M47 750h128v-1000h-128v1000z" />
    <glyph glyph-name="braceright" unicode="}" horiz-adv-x="426" 
d="M329 134v-210q0 -64 -18 -94.5t-78 -46t-185 -15.5v62q67 0 97 32t30 106v149q0 64 16 96.5t65 46.5v2q-49 14 -65 46.5t-16 96.5v149q0 74 -30 106t-97 32v62q125 0 185 -15.5t78 -46t18 -94.5v-210q0 -56 15.5 -84t60.5 -42v-2q-45 -14 -60.5 -42t-15.5 -84z" />
    <glyph glyph-name="asciitilde" unicode="~" horiz-adv-x="600" 
d="M495 334l50 -120q-39 -45 -68 -64.5t-71 -19.5q-40 0 -109 34t-108 34q-56 0 -84 -62l-50 120q24 28 38 42t42 28t59 14q40 0 115 -34t98 -34q47 0 88 62z" />
    <glyph glyph-name="uni00A0" unicode="&#xa0;" horiz-adv-x="333" 
 />
    <glyph glyph-name="exclamdown" unicode="&#xa1;" horiz-adv-x="370" 
d="M159 270h52q0 -103 29 -216.5t70 -180.5q-14 -42 -48 -76.5t-77 -56.5q-43 22 -77 56.5t-48 76.5q41 67 70 180.5t29 216.5zM185 302q-40 0 -70.5 28t-30.5 67t30.5 67t70.5 28t70.5 -28t30.5 -67t-30.5 -67t-70.5 -28z" />
    <glyph glyph-name="cent" unicode="&#xa2;" 
d="M273 566v109h62v-101q70 0 109.5 -25t39.5 -65q0 -32 -21 -53t-46 -21q-22 0 -39 12q12 20 12 34q0 28 -22 46t-55 18q-35 0 -61 -31.5t-26 -74.5q0 -78 42.5 -130t118.5 -52q46 0 94 33l28 -32q-79 -83 -174 -101v-114h-62v110q-85 4 -142 61t-57 143t57 150.5t142 83.5
z" />
    <glyph glyph-name="sterling" unicode="&#xa3;" 
d="M214 82q-39 32 -58 32q-55 0 -55 -43q0 -15 13 -27t30 -12q40 0 70 50zM387 383h127v-62h-111q3 -24 3 -46q0 -37 -50 -109q20 -8 53 -28t60 -32t49 -12q39 0 39 38q0 13 -18 33q18 22 41 22q22 0 33 -19.5t11 -49.5q0 -59 -50 -99.5t-124 -40.5q-78 0 -184 67
q-63 -67 -122 -67q-44 0 -72.5 25.5t-28.5 61.5q0 52 43.5 92.5t121.5 40.5q26 0 50 -7q0 21 -5.5 35.5t-13 23t-28 30t-36.5 41.5h-110v62h80q-31 55 -31 115q0 97 74.5 155.5t173.5 58.5q86 0 141.5 -40t55.5 -104q0 -37 -25.5 -62.5t-65.5 -25.5q-23 0 -41 21.5t-20 48.5
q15 -1 29.5 16t14.5 36t-21 35.5t-53 16.5q-34 0 -57.5 -24t-23.5 -58q0 -28 16 -61.5t41.5 -72t33.5 -55.5z" />
    <glyph glyph-name="currency" unicode="&#xa4;" 
d="M477 563l62 62l72 -72l-60 -60q45 -47 45 -148t-45 -148l60 -60l-72 -72l-62 62q-20 -20 -60 -32.5t-84 -12.5t-84 12.5t-60 32.5l-62 -62l-72 72l60 60q-45 47 -45 148t45 148l-60 60l72 72l62 -62q20 20 60 32.5t84 12.5t84 -12.5t60 -32.5zM466 345q0 60 -37 100.5
t-96 40.5t-96 -40.5t-37 -100.5q0 -59 37 -100t96 -41t96 41t37 100z" />
    <glyph glyph-name="yen" unicode="&#xa5;" 
d="M584 388h-114l-33 -60h147v-62h-159v-126q0 -49 21.5 -65.5t68.5 -16.5v-70q-10 0 -59.5 6t-119.5 6q-71 0 -120.5 -6t-59.5 -6v70q48 1 68.5 23t20.5 80v105h-163v62h135l-27 60h-108v62h80l-42 93q-24 51 -50 70t-66 19v70q9 0 56.5 -6t114.5 -6t114.5 6t56.5 6v-68
q-26 -3 -36.5 -9t-10.5 -20q0 -3 0.5 -6.5t2 -9t4 -10.5t7 -15.5t9 -20.5t13 -28t16.5 -35.5t21.5 -45.5t26.5 -56q65 114 83 151t18 58t-15 33t-41 12v70q6 0 36.5 -6t73.5 -6t73.5 6t36.5 6v-70q-57 0 -108 -88l-52 -94h80v-62z" />
    <glyph glyph-name="brokenbar" unicode="&#xa6;" horiz-adv-x="222" 
d="M47 675h128v-350h-128v350zM47 175h128v-350h-128v350z" />
    <glyph glyph-name="section" unicode="&#xa7;" 
d="M146 588q0 90 68 149t160 59q51 0 95 -22.5t44 -68.5q0 -22 -15.5 -39.5t-36.5 -17.5q-25 0 -39 14.5t-18 31.5t-16 31.5t-34 14.5q-32 0 -57 -21t-25 -53q0 -26 16.5 -50.5t43 -45t58.5 -42t64 -46t58.5 -52.5t43 -67t16.5 -83q0 -115 -96 -185q45 -60 45 -132
q0 -88 -70 -142.5t-147 -54.5q-149 0 -149 89q0 21 16 38t36 17q21 0 35 -14t21 -30t21.5 -30t35.5 -14q31 0 53 20.5t22 52.5q0 29 -22.5 56.5t-55.5 48.5t-72.5 50t-72.5 59t-55.5 75.5t-22.5 99.5q0 99 88 189q-36 44 -36 115zM472 178q0 34 -30.5 68.5t-69.5 60.5
t-88 63.5t-75 71.5q-15 -34 -15 -66q0 -29 32 -63t72.5 -61t87 -63.5t67.5 -65.5q19 24 19 55z" />
    <glyph glyph-name="dieresis" unicode="&#xa8;" horiz-adv-x="370" 
d="M327 722q26 0 41.5 -16t15.5 -42q0 -37 -36.5 -67.5t-74.5 -30.5q-25 0 -42 15.5t-17 40.5q0 36 38 68t75 32zM99 722q26 0 41.5 -16t15.5 -42q0 -37 -36.5 -67.5t-74.5 -30.5q-25 0 -42 15.5t-17 40.5q0 36 38 68t75 32z" />
    <glyph glyph-name="copyright" unicode="&#xa9;" horiz-adv-x="800" 
d="M400 734q160 0 265 -108.5t105 -269.5t-105 -269.5t-265 -108.5t-265 108.5t-105 269.5t105 269.5t265 108.5zM126 356q0 -129 77.5 -217.5t196.5 -88.5t196.5 88.5t77.5 217.5t-77.5 217.5t-196.5 88.5t-196.5 -88.5t-77.5 -217.5zM549 279h31l-16 -83q-2 -14 -32 -27
q-75 -22 -112 -22q-110 0 -171 58.5t-61 163.5q0 29 6.5 57t23.5 57t43 50.5t69.5 35.5t98.5 14q50 0 109 -19q24 -14 24 -27v-77h-30q-28 85 -100 85q-49 4 -74 -41.5t-26 -128.5q-2 -190 97 -190q38 0 70 26t50 68z" />
    <glyph glyph-name="ordfeminine" unicode="&#xaa;" horiz-adv-x="356" 
d="M372 499l14 -24q-42 -45 -108 -45q-24 0 -43.5 10.5t-25.5 29.5q-18 -17 -56 -29q-33 -11 -63 -11q-37 0 -59.5 16.5t-22.5 48.5q0 48 57 78.5t144 37.5q0 77 -48 77q-25 0 -42.5 -10.5t-17.5 -22.5q0 -13 8 -20l-32 -18l-43 53q75 64 179 64q55 0 85.5 -28t30.5 -78
q0 -25 -3.5 -52t-3.5 -50q0 -22 6 -30t20 -8q15 0 24 11zM158 482q25 0 37.5 21t13.5 74q-83 -18 -83 -62q0 -14 8.5 -23.5t23.5 -9.5z" />
    <glyph glyph-name="guillemotleft" unicode="&#xab;" horiz-adv-x="556" 
d="M386 235l116 -173l-44 -30l-194 174v56l194 176l44 -32zM164 235l116 -173l-44 -30l-194 174v56l194 176l44 -32z" />
    <glyph glyph-name="logicalnot" unicode="&#xac;" horiz-adv-x="600" 
d="M407 68v206h-342v128h470v-334h-128z" />
    <glyph glyph-name="uni00AD" unicode="&#xad;" horiz-adv-x="389" 
d="M43 159v152h304v-152h-304z" />
    <glyph glyph-name="registered" unicode="&#xae;" horiz-adv-x="800" 
d="M221 537v32h221q116 0 116 -109q0 -88 -74 -111q19 -33 107 -162v-24h-101q-14 0 -31 28.5t-38.5 77t-34.5 69.5h-13v-105q0 -21 8 -30t32 -10v-30h-192v30q24 1 32 10t8 30v265q0 21 -8 29.5t-32 9.5zM373 531v-155h20q27 0 40 24.5t13 56.5q0 74 -47 74h-26zM400 734
q160 0 265 -108.5t105 -269.5t-105 -269.5t-265 -108.5t-265 108.5t-105 269.5t105 269.5t265 108.5zM126 356q0 -129 77.5 -217.5t196.5 -88.5t196.5 88.5t77.5 217.5t-77.5 217.5t-196.5 88.5t-196.5 -88.5t-77.5 -217.5z" />
    <glyph glyph-name="macron" unicode="&#xaf;" horiz-adv-x="370" 
d="M362 596h-354v90h354v-90z" />
    <glyph glyph-name="degree" unicode="&#xb0;" horiz-adv-x="400" 
d="M288 557q0 40 -25 67.5t-63 27.5t-63 -27.5t-25 -67.5q0 -39 25 -67.5t63 -28.5q33 0 60.5 28.5t27.5 67.5zM200 712q66 0 111 -44.5t45 -110.5t-45 -111t-111 -45t-111 45t-45 111t45 110.5t111 44.5z" />
    <glyph glyph-name="plusminus" unicode="&#xb1;" horiz-adv-x="600" 
d="M236 378v92h128v-92h171v-128h-171v-96h-128v96h-171v128h171zM65 0v128h470v-128h-470z" />
    <glyph glyph-name="twosuperior" unicode="&#xb2;" horiz-adv-x="400" 
d="M37 272l-15 30q114 77 166.5 138.5t52.5 127.5q0 35 -22 61.5t-58 26.5q-25 0 -43 -14t-18 -35q0 -19 12 -27q-15 -22 -39 -22q-22 0 -32.5 14.5t-10.5 34.5q0 39 46 72t127 33q75 0 125.5 -33.5t50.5 -92.5q0 -30 -12 -56t-38 -49t-44.5 -36.5t-55 -35t-46.5 -28.5v-2
h101q35 0 51.5 9t26.5 29l33 -13q-5 -16 -33 -68t-28 -69q-27 18 -74 18h-157q-38 0 -66 -13z" />
    <glyph glyph-name="threesuperior" unicode="&#xb3;" horiz-adv-x="400" 
d="M157 496l-9 34q36 2 61 20t25 50q0 30 -18.5 47t-51.5 17q-22 0 -38 -12t-16 -30q0 -16 9 -26q-13 -16 -36 -16q-17 0 -28 11t-11 27q0 38 45.5 66t125.5 28q68 0 107.5 -27t39.5 -71q0 -38 -30.5 -60t-73.5 -26v-2q57 0 94.5 -28t37.5 -80q0 -61 -60 -103.5t-159 -42.5
q-66 0 -104.5 19t-38.5 56q0 16 11.5 28t28.5 12q19 0 32 -12q-6 -8 -6 -19q0 -19 18 -29.5t46 -10.5q43 0 66.5 26t23.5 66q0 53 -23 70.5t-68 17.5z" />
    <glyph glyph-name="acute" unicode="&#xb4;" horiz-adv-x="370" 
d="M166 560h-66l109 147q39 51 85 51q25 0 42.5 -17t17.5 -42q0 -32 -45 -58z" />
    <glyph glyph-name="mu" unicode="&#xb5;" horiz-adv-x="685" 
d="M12 408v62q165 0 217 18h50q-11 -99 -11 -234q0 -96 14.5 -129t52.5 -33q40 0 63 53v203q0 33 -12 46.5t-39 13.5v62q170 0 205 18h56q-14 -59 -14 -150v-156q0 -62 13 -81.5t50 -20.5v-62q-78 0 -209 -36q-14 2 -29.5 24t-19.5 44q-59 -47 -131 -62v-80q0 -91 14 -150
h-91q-78 0 -120 -5q-9 -1 -21 -2t-20.5 -2t-17.5 -1v62q33 2 46.5 15t13.5 46v476q0 33 -13.5 46t-46.5 15z" />
    <glyph glyph-name="paragraph" unicode="&#xb6;" horiz-adv-x="620" 
d="M577 712v-68q-42 0 -56.5 -14.5t-14.5 -51.5v-820h-120v886h-59v-886h-120v543q-70 0 -112.5 59t-42.5 154q0 105 48.5 151.5t160.5 46.5h316z" />
    <glyph glyph-name="periodcentered" unicode="&#xb7;" horiz-adv-x="333" 
d="M166 330q39 0 67 -28t28 -67t-28 -67t-67 -28t-67 28t-28 67t28 67t67 28z" />
    <glyph glyph-name="cedilla" unicode="&#xb8;" horiz-adv-x="370" 
d="M83 -205l18 54q51 -17 71 -17t33.5 8.5t13.5 21.5q0 15 -11 25.5t-29 10.5q-15 0 -29 -6l-16 9l47 99h46l-24 -52q21 6 42 6q31 0 54.5 -24t23.5 -59q0 -52 -45 -73.5t-103 -21.5q-39 0 -92 19z" />
    <glyph glyph-name="onesuperior" unicode="&#xb9;" horiz-adv-x="400" 
d="M251 719h42q-10 -65 -10 -92v-229q0 -53 16 -65.5t77 -12.5v-42q-10 0 -55 3.5t-106 3.5q-62 0 -106.5 -3.5t-54.5 -3.5v42h24q31 0 43.5 7t19 33t6.5 86v127q0 38 -33 38q-11 0 -60 -7l-5 37q135 26 202 78z" />
    <glyph glyph-name="ordmasculine" unicode="&#xba;" horiz-adv-x="389" 
d="M208 734q75 0 126 -40t51 -108q0 -76 -58.5 -116t-147.5 -40q-75 0 -125.5 40t-50.5 108q0 76 58 116t147 40zM135 602q0 -55 20.5 -94.5t48.5 -39.5q22 0 35.5 24.5t13.5 69.5q0 55 -20.5 94.5t-49.5 39.5q-48 0 -48 -94z" />
    <glyph glyph-name="guillemotright" unicode="&#xbb;" horiz-adv-x="556" 
d="M392 235l-116 171l44 32l194 -176v-56l-194 -174l-44 30zM170 235l-116 171l44 32l194 -176v-56l-194 -174l-44 30z" />
    <glyph glyph-name="onequarter" unicode="&#xbc;" horiz-adv-x="1000" 
d="M791 428h99q-6 -23 -6 -25v-233q40 0 61 15v-103q-20 14 -61 14v-30q0 -42 28 -62l-3 -10q-53 6 -91 6q-42 0 -84 -6l-3 10q27 21 27 92h-134q-40 0 -88 -9q-1 28 4 39t31 41q211 243 220 261zM757 318l-125 -148h126v148h-1zM363 -22h-94l406 734h95zM263 719h42
q-10 -65 -10 -92v-229q0 -53 16 -65.5t77 -12.5v-42q-10 0 -55 3.5t-106 3.5q-62 0 -106.5 -3.5t-54.5 -3.5v42h24q31 0 43.5 7t19 33t6.5 86v127q0 38 -33 38q-11 0 -60 -7l-5 37q135 26 202 78z" />
    <glyph glyph-name="onehalf" unicode="&#xbd;" horiz-adv-x="1000" 
d="M347 -22h-94l406 734h95zM263 719h42q-10 -65 -10 -92v-229q0 -53 16 -65.5t77 -12.5v-42q-10 0 -55 3.5t-106 3.5q-62 0 -106.5 -3.5t-54.5 -3.5v42h24q31 0 43.5 7t19 33t6.5 86v127q0 38 -33 38q-11 0 -60 -7l-5 37q135 26 202 78zM613 -13l-15 30q114 77 166.5 138.5
t52.5 127.5q0 35 -22 61.5t-58 26.5q-25 0 -43 -14t-18 -35q0 -19 12 -27q-15 -22 -39 -22q-22 0 -32.5 14.5t-10.5 34.5q0 39 46 72t127 33q75 0 125.5 -33.5t50.5 -92.5q0 -30 -12 -56t-38 -49t-44.5 -36.5t-55 -35t-46.5 -28.5v-2h101q35 0 51.5 9t26.5 29l33 -13
q-5 -16 -33 -68t-28 -69q-16 11 -32 14q-15 4 -42 4h-157q-38 0 -66 -13z" />
    <glyph glyph-name="threequarters" unicode="&#xbe;" horiz-adv-x="1000" 
d="M363 -22h-94l406 734h95zM185 496l-9 34q36 2 61 20t25 50q0 30 -18.5 47t-51.5 17q-22 0 -38 -12t-16 -30q0 -16 9 -26q-13 -16 -36 -16q-17 0 -28 11t-11 27q0 38 45.5 66t125.5 28q68 0 107.5 -27t39.5 -71q0 -38 -30.5 -60t-73.5 -26v-2q57 0 94.5 -28t37.5 -80
q0 -61 -60 -103.5t-159 -42.5q-66 0 -104.5 19t-38.5 56q0 16 11.5 28t28.5 12q18 0 32 -12q-6 -8 -6 -19q0 -19 18 -29.5t46 -10.5q43 0 66.5 26t23.5 66q0 53 -23 70.5t-68 17.5zM791 428h99q-6 -23 -6 -25v-233q40 0 61 15v-103q-20 14 -61 14v-30q0 -42 28 -62l-3 -10
q-53 6 -91 6q-42 0 -84 -6l-3 10q27 21 27 92h-134q-40 0 -88 -9q-1 28 4 39t31 41q211 243 220 261zM757 318l-125 -148h126v148h-1z" />
    <glyph glyph-name="questiondown" unicode="&#xbf;" horiz-adv-x="519" 
d="M229 265l64 14q20 -40 52.5 -73.5t51.5 -56t19 -45.5q0 -43 -27.5 -70t-66.5 -39.5t-78 -23t-66.5 -30.5t-27.5 -53q0 -38 28 -62t76 -24q44 0 70 18t26 44t-15 42q25 28 70 28q63 0 63 -71q0 -49 -53.5 -86t-133.5 -37q-109 0 -179 56.5t-70 147.5q0 49 17 84.5
t42.5 52.5t55.5 30t55.5 19.5t42.5 18.5t17 28q0 36 -33 88zM272 302q-40 0 -70.5 28t-30.5 67t30.5 67t70.5 28t70.5 -28t30.5 -67t-30.5 -67t-70.5 -28z" />
    <glyph glyph-name="Agrave" unicode="&#xc0;" horiz-adv-x="852" 
d="M461 -12v70q80 1 80 45q0 12 -0.5 18.5t-4.5 17.5t-8 20.5t-15.5 36t-22.5 55.5q-36 7 -146 7q-87 0 -117 -4q-39 -108 -39 -134q0 -25 23.5 -43t65.5 -19v-70q-8 0 -49.5 6t-101.5 6t-101.5 -6t-49.5 -6v70q47 3 81 35t67 102q171 371 171 415q0 24 -12 34.5t-39 9.5v70
h87q53 0 126 23t116 23q-7 -16 -7 -54q0 -41 99 -292.5t124 -300.5q20 -39 37.5 -51t51.5 -14v-70q-11 0 -68.5 6t-139.5 6t-139.5 -6t-68.5 -6zM461 328l-93 264l-106 -264q29 -4 97 -4t102 4zM517 777h-66l-143 81q-45 26 -45 58q0 25 17.5 42t42.5 17q46 0 85 -51z" />
    <glyph glyph-name="Aacute" unicode="&#xc1;" horiz-adv-x="852" 
d="M461 -12v70q80 1 80 45q0 12 -0.5 18.5t-4.5 17.5t-8 20.5t-15.5 36t-22.5 55.5q-36 7 -146 7q-87 0 -117 -4q-39 -108 -39 -134q0 -25 23.5 -43t65.5 -19v-70q-8 0 -49.5 6t-101.5 6t-101.5 -6t-49.5 -6v70q47 3 81 35t67 102q171 371 171 415q0 24 -12 34.5t-39 9.5v70
h87q53 0 126 23t116 23q-7 -16 -7 -54q0 -41 99 -292.5t124 -300.5q20 -39 37.5 -51t51.5 -14v-70q-11 0 -68.5 6t-139.5 6t-139.5 -6t-68.5 -6zM461 328l-93 264l-106 -264q29 -4 97 -4t102 4zM413 777h-66l109 147q39 51 85 51q25 0 42.5 -17t17.5 -42q0 -32 -45 -58z" />
    <glyph glyph-name="Acircumflex" unicode="&#xc2;" horiz-adv-x="852" 
d="M461 -12v70q80 1 80 45q0 12 -0.5 18.5t-4.5 17.5t-8 20.5t-15.5 36t-22.5 55.5q-36 7 -146 7q-87 0 -117 -4q-39 -108 -39 -134q0 -25 23.5 -43t65.5 -19v-70q-8 0 -49.5 6t-101.5 6t-101.5 -6t-49.5 -6v70q47 3 81 35t67 102q171 371 171 415q0 24 -12 34.5t-39 9.5v70
h87q53 0 126 23t116 23q-7 -16 -7 -54q0 -41 99 -292.5t124 -300.5q20 -39 37.5 -51t51.5 -14v-70q-11 0 -68.5 6t-139.5 6t-139.5 -6t-68.5 -6zM461 328l-93 264l-106 -264q29 -4 97 -4t102 4zM432 871l-107 -94h-78l123 182h125l122 -182h-77z" />
    <glyph glyph-name="Atilde" unicode="&#xc3;" horiz-adv-x="852" 
d="M461 -12v70q80 1 80 45q0 12 -0.5 18.5t-4.5 17.5t-8 20.5t-15.5 36t-22.5 55.5q-36 7 -146 7q-87 0 -117 -4q-39 -108 -39 -134q0 -25 23.5 -43t65.5 -19v-70q-8 0 -49.5 6t-101.5 6t-101.5 -6t-49.5 -6v70q47 3 81 35t67 102q171 371 171 415q0 24 -12 34.5t-39 9.5v70
h87q53 0 126 23t116 23q-7 -16 -7 -54q0 -41 99 -292.5t124 -300.5q20 -39 37.5 -51t51.5 -14v-70q-11 0 -68.5 6t-139.5 6t-139.5 -6t-68.5 -6zM461 328l-93 264l-106 -264q29 -4 97 -4t102 4zM577 939h54q-12 -60 -42.5 -103t-83.5 -43q-42 0 -98.5 26t-72.5 26
q-35 0 -48 -48h-53q25 146 134 146q26 0 84.5 -26t76.5 -26q20 0 30.5 12.5t18.5 35.5z" />
    <glyph glyph-name="Adieresis" unicode="&#xc4;" horiz-adv-x="852" 
d="M461 -12v70q80 1 80 45q0 12 -0.5 18.5t-4.5 17.5t-8 20.5t-15.5 36t-22.5 55.5q-36 7 -146 7q-87 0 -117 -4q-39 -108 -39 -134q0 -25 23.5 -43t65.5 -19v-70q-8 0 -49.5 6t-101.5 6t-101.5 -6t-49.5 -6v70q47 3 81 35t67 102q171 371 171 415q0 24 -12 34.5t-39 9.5v70
h87q53 0 126 23t116 23q-7 -16 -7 -54q0 -41 99 -292.5t124 -300.5q20 -39 37.5 -51t51.5 -14v-70q-11 0 -68.5 6t-139.5 6t-139.5 -6t-68.5 -6zM461 328l-93 264l-106 -264q29 -4 97 -4t102 4zM574 939q26 0 41.5 -16t15.5 -42q0 -37 -36.5 -67.5t-74.5 -30.5
q-25 0 -42 15.5t-17 40.5q0 36 38 68t75 32zM346 939q26 0 41.5 -16t15.5 -42q0 -37 -36.5 -67.5t-74.5 -30.5q-25 0 -42 15.5t-17 40.5q0 36 38 68t75 32z" />
    <glyph glyph-name="Aring" unicode="&#xc5;" horiz-adv-x="852" 
d="M461 -12v70q80 1 80 45q0 12 -0.5 18.5t-4.5 17.5t-8 20.5t-15.5 36t-22.5 55.5q-36 7 -146 7q-87 0 -117 -4q-39 -108 -39 -134q0 -25 23.5 -43t65.5 -19v-70q-8 0 -49.5 6t-101.5 6t-101.5 -6t-49.5 -6v70q47 3 81 35t67 102q171 371 171 415q0 24 -12 34.5t-39 9.5v70
h87q53 0 126 23t116 23q-7 -16 -7 -54q0 -41 99 -292.5t124 -300.5q20 -39 37.5 -51t51.5 -14v-70q-11 0 -68.5 6t-139.5 6t-139.5 -6t-68.5 -6zM461 328l-93 264l-106 -264q29 -4 97 -4t102 4zM432 995q46 0 81 -33.5t35 -81.5t-35 -81.5t-81 -33.5t-81 33.5t-35 81.5
t35 81.5t81 33.5zM432 929q-20 0 -35 -15t-15 -34t15 -34t35 -15t35 15t15 34t-15 34t-35 15z" />
    <glyph glyph-name="AE" unicode="&#xc6;" horiz-adv-x="1111" 
d="M315 654v70h2q2 0 11 -1t28.5 -2.5t42.5 -2.5q106 -6 245 -6q234 0 295.5 3t118.5 19q-10 -26 -10 -122q0 -42 -6 -57h-50q0 99 -176 99q-32 0 -94 -10v-238h90q57 0 79.5 21.5t23.5 63.5h52q4 -17 4 -53q0 -12 -2 -36t-2 -33t2 -33t2 -36q0 -36 -4 -53h-52
q-1 45 -23.5 67t-79.5 22h-90v-188q0 -90 112 -90q72 0 134.5 45t75.5 104h56q0 -37 -13.5 -109t-13.5 -130q-51 24 -104.5 28t-286.5 4q-153 0 -225 -6q-16 -1 -27.5 -2.5t-15.5 -2.5t-6 -1h-2v70q52 -1 75 28t23 88v104q-36 6 -158 6q-56 0 -98 -3q-64 -95 -79 -122
t-15 -53q0 -45 89 -48v-70q-8 0 -49.5 6t-99.5 6t-99.5 -6t-49.5 -6v70q49 7 82.5 34.5t74.5 91.5q64 99 120 183.5t83 124t47 69.5t25.5 40.5t5.5 16.5q0 36 -68 36zM504 352v298h-10l-195 -298q40 -2 80 -2q97 0 125 2z" />
    <glyph glyph-name="Ccedilla" unicode="&#xc7;" horiz-adv-x="870" 
d="M761 491h-52q0 81 -49 127t-141 46q-125 0 -184 -83t-59 -224q0 -138 75.5 -222t191.5 -87q63 0 124 45.5t85 105.5h60q-9 -44 -22 -78.5t-18.5 -61.5t-5.5 -80q-49 21 -95 21q-36 0 -89 -11q-45 -7 -73 -8l-15 -33q21 6 42 6q31 0 54.5 -24t23.5 -59q0 -52 -45 -73.5
t-103 -21.5q-39 0 -92 19l18 54q51 -17 71 -17t33.5 8.5t13.5 21.5q0 15 -11 25.5t-29 10.5q-16 0 -29 -6l-16 9l37 77h-4q-201 0 -311.5 98t-110.5 261q0 95 36.5 172t100 125.5t145.5 74t175 25.5q74 0 142 -19q78 -19 95 -19q22 0 72 13q-15 -28 -26 -114.5t-15 -103.5z
" />
    <glyph glyph-name="Egrave" unicode="&#xc8;" horiz-adv-x="741" 
d="M126 180v352q0 64 -22 91.5t-68 30.5v70h2q20 0 108 -6t190 -6q192 0 240.5 3t111.5 19q-10 -38 -10 -134q0 -42 -6 -57h-50q0 99 -176 99q-32 0 -94 -10v-226h90q57 0 79.5 21.5t23.5 63.5h52q4 -17 4 -53q0 -12 -2 -36t-2 -33t2 -33t2 -36q0 -36 -4 -53h-52
q-1 45 -23.5 67t-79.5 22h-90v-176q0 -50 31 -70t89 -20q67 0 128 43.5t74 97.5h56q0 -39 -13.5 -112.5t-13.5 -130.5q-66 23 -126 27.5t-285 4.5q-148 0 -214 -6q-14 -1 -23.5 -2.5t-12.5 -2.5t-4 -1h-2v70q46 3 68 30.5t22 91.5zM479 777h-66l-143 81q-45 26 -45 58
q0 25 17.5 42t42.5 17q46 0 85 -51z" />
    <glyph glyph-name="Eacute" unicode="&#xc9;" horiz-adv-x="741" 
d="M126 180v352q0 64 -22 91.5t-68 30.5v70h2q20 0 108 -6t190 -6q192 0 240.5 3t111.5 19q-10 -38 -10 -134q0 -42 -6 -57h-50q0 99 -176 99q-32 0 -94 -10v-226h90q57 0 79.5 21.5t23.5 63.5h52q4 -17 4 -53q0 -12 -2 -36t-2 -33t2 -33t2 -36q0 -36 -4 -53h-52
q-1 45 -23.5 67t-79.5 22h-90v-176q0 -50 31 -70t89 -20q67 0 128 43.5t74 97.5h56q0 -39 -13.5 -112.5t-13.5 -130.5q-66 23 -126 27.5t-285 4.5q-148 0 -214 -6q-14 -1 -23.5 -2.5t-12.5 -2.5t-4 -1h-2v70q46 3 68 30.5t22 91.5zM375 777h-66l109 147q39 51 85 51
q25 0 42.5 -17t17.5 -42q0 -32 -45 -58z" />
    <glyph glyph-name="Ecircumflex" unicode="&#xca;" horiz-adv-x="741" 
d="M126 180v352q0 64 -22 91.5t-68 30.5v70h2q20 0 108 -6t190 -6q192 0 240.5 3t111.5 19q-10 -38 -10 -134q0 -42 -6 -57h-50q0 99 -176 99q-32 0 -94 -10v-226h90q57 0 79.5 21.5t23.5 63.5h52q4 -17 4 -53q0 -12 -2 -36t-2 -33t2 -33t2 -36q0 -36 -4 -53h-52
q-1 45 -23.5 67t-79.5 22h-90v-176q0 -50 31 -70t89 -20q67 0 128 43.5t74 97.5h56q0 -39 -13.5 -112.5t-13.5 -130.5q-66 23 -126 27.5t-285 4.5q-148 0 -214 -6q-14 -1 -23.5 -2.5t-12.5 -2.5t-4 -1h-2v70q46 3 68 30.5t22 91.5zM394 871l-107 -94h-78l123 182h125
l122 -182h-77z" />
    <glyph glyph-name="Edieresis" unicode="&#xcb;" horiz-adv-x="741" 
d="M126 180v352q0 64 -22 91.5t-68 30.5v70h2q20 0 108 -6t190 -6q192 0 240.5 3t111.5 19q-10 -38 -10 -134q0 -42 -6 -57h-50q0 99 -176 99q-32 0 -94 -10v-226h90q57 0 79.5 21.5t23.5 63.5h52q4 -17 4 -53q0 -12 -2 -36t-2 -33t2 -33t2 -36q0 -36 -4 -53h-52
q-1 45 -23.5 67t-79.5 22h-90v-176q0 -50 31 -70t89 -20q67 0 128 43.5t74 97.5h56q0 -39 -13.5 -112.5t-13.5 -130.5q-66 23 -126 27.5t-285 4.5q-148 0 -214 -6q-14 -1 -23.5 -2.5t-12.5 -2.5t-4 -1h-2v70q46 3 68 30.5t22 91.5zM536 939q26 0 41.5 -16t15.5 -42
q0 -37 -36.5 -67.5t-74.5 -30.5q-25 0 -42 15.5t-17 40.5q0 36 38 68t75 32zM308 939q26 0 41.5 -16t15.5 -42q0 -37 -36.5 -67.5t-74.5 -30.5q-25 0 -42 15.5t-17 40.5q0 36 38 68t75 32z" />
    <glyph glyph-name="Igrave" unicode="&#xcc;" horiz-adv-x="481" 
d="M353 532v-352q0 -64 20.5 -91.5t65.5 -30.5v-70q-11 0 -66 6t-133 6t-133 -6t-66 -6v70q45 3 65.5 30.5t20.5 91.5v352q0 64 -20.5 91.5t-65.5 30.5v70q11 0 66 -6t133 -6t133 6t66 6v-70q-45 -3 -65.5 -30.5t-20.5 -91.5zM326 777h-66l-143 81q-45 26 -45 58
q0 25 17.5 42t42.5 17q46 0 85 -51z" />
    <glyph glyph-name="Iacute" unicode="&#xcd;" horiz-adv-x="481" 
d="M353 532v-352q0 -64 20.5 -91.5t65.5 -30.5v-70q-11 0 -66 6t-133 6t-133 -6t-66 -6v70q45 3 65.5 30.5t20.5 91.5v352q0 64 -20.5 91.5t-65.5 30.5v70q11 0 66 -6t133 -6t133 6t66 6v-70q-45 -3 -65.5 -30.5t-20.5 -91.5zM222 777h-66l109 147q39 51 85 51
q25 0 42.5 -17t17.5 -42q0 -32 -45 -58z" />
    <glyph glyph-name="Icircumflex" unicode="&#xce;" horiz-adv-x="481" 
d="M353 532v-352q0 -64 20.5 -91.5t65.5 -30.5v-70q-11 0 -66 6t-133 6t-133 -6t-66 -6v70q45 3 65.5 30.5t20.5 91.5v352q0 64 -20.5 91.5t-65.5 30.5v70q11 0 66 -6t133 -6t133 6t66 6v-70q-45 -3 -65.5 -30.5t-20.5 -91.5zM241 871l-107 -94h-78l123 182h125l122 -182
h-77z" />
    <glyph glyph-name="Idieresis" unicode="&#xcf;" horiz-adv-x="481" 
d="M353 532v-352q0 -64 20.5 -91.5t65.5 -30.5v-70q-11 0 -66 6t-133 6t-133 -6t-66 -6v70q45 3 65.5 30.5t20.5 91.5v352q0 64 -20.5 91.5t-65.5 30.5v70q11 0 66 -6t133 -6t133 6t66 6v-70q-45 -3 -65.5 -30.5t-20.5 -91.5zM383 939q26 0 41.5 -16t15.5 -42
q0 -37 -36.5 -67.5t-74.5 -30.5q-25 0 -42 15.5t-17 40.5q0 36 38 68t75 32zM155 939q26 0 41.5 -16t15.5 -42q0 -37 -36.5 -67.5t-74.5 -30.5q-25 0 -42 15.5t-17 40.5q0 36 38 68t75 32z" />
    <glyph glyph-name="Eth" unicode="&#xd0;" horiz-adv-x="944" 
d="M32 402h94v130q0 64 -22 91.5t-68 30.5v70q13 0 69.5 -6t92.5 -6q64 0 138.5 6t145.5 6q193 0 309.5 -89.5t116.5 -256.5q0 -95 -36.5 -170.5t-99 -122.5t-144 -72t-174.5 -25q-67 0 -122 6t-97 6q-78 0 -133 -6t-66 -6v70q46 3 68 30.5t22 91.5v152h-94v70zM352 402h203
v-70h-203v-129q0 -79 29.5 -112t102.5 -33q79 0 131.5 73.5t52.5 187.5q0 161 -62 248t-173 87q-23 0 -81 -9v-243z" />
    <glyph glyph-name="Ntilde" unicode="&#xd1;" horiz-adv-x="926" 
d="M31 654v70q8 0 46.5 -6t93.5 -6t93.5 6t46.5 6q3 -14 7.5 -25.5t14.5 -26.5t19.5 -26.5t30.5 -32.5t39 -38t54 -49t66.5 -58.5t85 -74.5t102.5 -90v237q0 65 -23.5 89.5t-90.5 24.5v70q8 0 46 -6t93 -6t93 6t46 6v-70q-55 0 -75.5 -27.5t-20.5 -96.5v-344q0 -32 2.5 -64
t7 -73t6.5 -71h-56q-26 31 -65.5 69.5t-85 80t-160 145.5t-231.5 213v-284q0 -85 27 -114.5t94 -29.5v-70q-8 0 -50.5 6t-102.5 6t-102.5 -6t-50.5 -6v70q65 0 91 50t26 192v168q0 102 -29 144t-88 42zM614 939h54q-12 -60 -42.5 -103t-83.5 -43q-42 0 -98.5 26t-72.5 26
q-35 0 -48 -48h-53q25 146 134 146q26 0 84.5 -26t76.5 -26q20 0 30.5 12.5t18.5 35.5z" />
    <glyph glyph-name="Ograve" unicode="&#xd2;" horiz-adv-x="926" 
d="M650 292q0 161 -58.5 266.5t-152.5 105.5q-77 0 -120 -67.5t-43 -176.5q0 -161 58.5 -266.5t152.5 -105.5q77 0 120 67.5t43 176.5zM36 356q0 90 37.5 163.5t100.5 119.5t142 70.5t165 24.5q172 0 290.5 -100.5t118.5 -277.5q0 -90 -37.5 -163.5t-100.5 -119.5
t-142 -70.5t-165 -24.5q-172 0 -290.5 100.5t-118.5 277.5zM542 777h-66l-143 81q-45 26 -45 58q0 25 17.5 42t42.5 17q46 0 85 -51z" />
    <glyph glyph-name="Oacute" unicode="&#xd3;" horiz-adv-x="926" 
d="M650 292q0 161 -58.5 266.5t-152.5 105.5q-77 0 -120 -67.5t-43 -176.5q0 -161 58.5 -266.5t152.5 -105.5q77 0 120 67.5t43 176.5zM36 356q0 90 37.5 163.5t100.5 119.5t142 70.5t165 24.5q172 0 290.5 -100.5t118.5 -277.5q0 -90 -37.5 -163.5t-100.5 -119.5
t-142 -70.5t-165 -24.5q-172 0 -290.5 100.5t-118.5 277.5zM438 777h-66l109 147q39 51 85 51q25 0 42.5 -17t17.5 -42q0 -32 -45 -58z" />
    <glyph glyph-name="Ocircumflex" unicode="&#xd4;" horiz-adv-x="926" 
d="M650 292q0 161 -58.5 266.5t-152.5 105.5q-77 0 -120 -67.5t-43 -176.5q0 -161 58.5 -266.5t152.5 -105.5q77 0 120 67.5t43 176.5zM36 356q0 90 37.5 163.5t100.5 119.5t142 70.5t165 24.5q172 0 290.5 -100.5t118.5 -277.5q0 -90 -37.5 -163.5t-100.5 -119.5
t-142 -70.5t-165 -24.5q-172 0 -290.5 100.5t-118.5 277.5zM457 871l-107 -94h-78l123 182h125l122 -182h-77z" />
    <glyph glyph-name="Otilde" unicode="&#xd5;" horiz-adv-x="926" 
d="M650 292q0 161 -58.5 266.5t-152.5 105.5q-77 0 -120 -67.5t-43 -176.5q0 -161 58.5 -266.5t152.5 -105.5q77 0 120 67.5t43 176.5zM36 356q0 90 37.5 163.5t100.5 119.5t142 70.5t165 24.5q172 0 290.5 -100.5t118.5 -277.5q0 -90 -37.5 -163.5t-100.5 -119.5
t-142 -70.5t-165 -24.5q-172 0 -290.5 100.5t-118.5 277.5zM602 939h54q-12 -60 -42.5 -103t-83.5 -43q-42 0 -98.5 26t-72.5 26q-35 0 -48 -48h-53q25 146 134 146q26 0 84.5 -26t76.5 -26q20 0 30.5 12.5t18.5 35.5z" />
    <glyph glyph-name="Odieresis" unicode="&#xd6;" horiz-adv-x="926" 
d="M650 292q0 161 -58.5 266.5t-152.5 105.5q-77 0 -120 -67.5t-43 -176.5q0 -161 58.5 -266.5t152.5 -105.5q77 0 120 67.5t43 176.5zM36 356q0 90 37.5 163.5t100.5 119.5t142 70.5t165 24.5q172 0 290.5 -100.5t118.5 -277.5q0 -90 -37.5 -163.5t-100.5 -119.5
t-142 -70.5t-165 -24.5q-172 0 -290.5 100.5t-118.5 277.5zM599 939q26 0 41.5 -16t15.5 -42q0 -37 -36.5 -67.5t-74.5 -30.5q-25 0 -42 15.5t-17 40.5q0 36 38 68t75 32zM371 939q26 0 41.5 -16t15.5 -42q0 -37 -36.5 -67.5t-74.5 -30.5q-25 0 -42 15.5t-17 40.5
q0 36 38 68t75 32z" />
    <glyph glyph-name="multiply" unicode="&#xd7;" horiz-adv-x="600" 
d="M390 235l145 -145l-91 -90l-144 144l-144 -144l-91 90l145 145l-145 145l91 90l144 -144l144 144l91 -90z" />
    <glyph glyph-name="Oslash" unicode="&#xd8;" horiz-adv-x="926" 
d="M618 498l-272 -364q57 -86 141 -86q77 0 120 67.5t43 176.5q0 119 -32 206zM309 215l271 362q-57 87 -141 87q-77 0 -120 -67.5t-43 -176.5q0 -118 33 -205zM257 16l-115 -130h-98l143 167q-151 105 -151 303q0 90 37.5 163.5t100.5 119.5t142 70.5t165 24.5
q105 0 188 -38l115 130h98l-143 -167q151 -104 151 -303q0 -90 -37.5 -163.5t-100.5 -119.5t-142 -70.5t-165 -24.5q-103 0 -188 38z" />
    <glyph glyph-name="Ugrave" unicode="&#xd9;" horiz-adv-x="926" 
d="M22 654v70q13 -1 82 -6.5t133 -5.5t133 5.5t82 6.5v-70q-60 -3 -79 -21t-19 -75v-283q0 -33 5 -62.5t16.5 -57.5t29 -48t45.5 -32.5t63 -12.5q59 0 103 20t68 54.5t35 73.5t11 84v252q0 60 -28.5 83t-91.5 25v70q13 -1 43 -4.5t54.5 -5.5t49.5 -2t49.5 2t54.5 5.5t43 4.5
v-70q-49 -2 -74.5 -25.5t-25.5 -82.5v-254q0 -148 -99 -231t-255 -83q-162 0 -245.5 87.5t-83.5 249.5q0 31 3.5 94t3.5 95q0 88 -18 117t-88 33zM565 777h-66l-143 81q-45 26 -45 58q0 25 17.5 42t42.5 17q46 0 85 -51z" />
    <glyph glyph-name="Uacute" unicode="&#xda;" horiz-adv-x="926" 
d="M22 654v70q13 -1 82 -6.5t133 -5.5t133 5.5t82 6.5v-70q-60 -3 -79 -21t-19 -75v-283q0 -33 5 -62.5t16.5 -57.5t29 -48t45.5 -32.5t63 -12.5q59 0 103 20t68 54.5t35 73.5t11 84v252q0 60 -28.5 83t-91.5 25v70q13 -1 43 -4.5t54.5 -5.5t49.5 -2t49.5 2t54.5 5.5t43 4.5
v-70q-49 -2 -74.5 -25.5t-25.5 -82.5v-254q0 -148 -99 -231t-255 -83q-162 0 -245.5 87.5t-83.5 249.5q0 31 3.5 94t3.5 95q0 88 -18 117t-88 33zM461 777h-66l109 147q39 51 85 51q25 0 42.5 -17t17.5 -42q0 -32 -45 -58z" />
    <glyph glyph-name="Ucircumflex" unicode="&#xdb;" horiz-adv-x="926" 
d="M22 654v70q13 -1 82 -6.5t133 -5.5t133 5.5t82 6.5v-70q-60 -3 -79 -21t-19 -75v-283q0 -33 5 -62.5t16.5 -57.5t29 -48t45.5 -32.5t63 -12.5q59 0 103 20t68 54.5t35 73.5t11 84v252q0 60 -28.5 83t-91.5 25v70q13 -1 43 -4.5t54.5 -5.5t49.5 -2t49.5 2t54.5 5.5t43 4.5
v-70q-49 -2 -74.5 -25.5t-25.5 -82.5v-254q0 -148 -99 -231t-255 -83q-162 0 -245.5 87.5t-83.5 249.5q0 31 3.5 94t3.5 95q0 88 -18 117t-88 33zM480 871l-107 -94h-78l123 182h125l122 -182h-77z" />
    <glyph glyph-name="Udieresis" unicode="&#xdc;" horiz-adv-x="926" 
d="M22 654v70q13 -1 82 -6.5t133 -5.5t133 5.5t82 6.5v-70q-60 -3 -79 -21t-19 -75v-283q0 -33 5 -62.5t16.5 -57.5t29 -48t45.5 -32.5t63 -12.5q59 0 103 20t68 54.5t35 73.5t11 84v252q0 60 -28.5 83t-91.5 25v70q13 -1 43 -4.5t54.5 -5.5t49.5 -2t49.5 2t54.5 5.5t43 4.5
v-70q-49 -2 -74.5 -25.5t-25.5 -82.5v-254q0 -148 -99 -231t-255 -83q-162 0 -245.5 87.5t-83.5 249.5q0 31 3.5 94t3.5 95q0 88 -18 117t-88 33zM622 939q26 0 41.5 -16t15.5 -42q0 -37 -36.5 -67.5t-74.5 -30.5q-25 0 -42 15.5t-17 40.5q0 36 38 68t75 32zM394 939
q26 0 41.5 -16t15.5 -42q0 -37 -36.5 -67.5t-74.5 -30.5q-25 0 -42 15.5t-17 40.5q0 36 38 68t75 32z" />
    <glyph glyph-name="Yacute" unicode="&#xdd;" horiz-adv-x="758" 
d="M156 -12v70q56 0 83.5 25t27.5 64v132l-156 281q-30 54 -62 74t-82 20v70q15 0 96.5 -6t146.5 -6q53 0 109 6t74 6v-70q-56 0 -56 -28q0 -7 1 -12t5 -14t8.5 -18t15 -27.5t22 -38t31.5 -54.5t41 -72q27 41 53.5 81t37 55.5t20.5 32t12 25.5t2 22q0 21 -19 34.5t-51 13.5
v70q8 0 46 -6t92 -6t92 6t46 6v-70q-71 0 -135 -93l-164 -244v-191q0 -33 24.5 -50.5t90.5 -17.5v-70q-12 0 -74.5 6t-151.5 6t-151.5 -6t-74.5 -6zM424 777h-66l109 147q39 51 85 51q25 0 42.5 -17t17.5 -42q0 -32 -45 -58z" />
    <glyph glyph-name="Thorn" unicode="&#xde;" horiz-adv-x="796" 
d="M377 155l6 59q26 -16 54 -16q92 0 92 138q0 83 -36.5 132.5t-95.5 49.5q-15 0 -45 -8v-330q0 -64 20.5 -91.5t65.5 -30.5v-70q-11 0 -66 6t-133 6t-134 -6t-69 -6v70q48 3 69 30t21 92v352q0 65 -21 92t-69 30v70q13 0 69 -6t134 -6t133 6t66 6v-70q-69 -4 -81 -72
q49 6 96 6q148 0 232 -64.5t84 -169.5q0 -104 -74.5 -165t-188.5 -61q-72 0 -129 27z" />
    <glyph glyph-name="germandbls" unicode="&#xdf;" horiz-adv-x="722" 
d="M324 378v66q62 0 100.5 46t38.5 134q0 58 -18 84t-57 26q-35 0 -56 -19.5t-32.5 -72.5t-11.5 -146v-346q0 -55 10 -75.5t36 -22.5v-62q-8 0 -49.5 5t-101.5 5t-101.5 -5t-49.5 -5v62q31 1 45.5 34t14.5 104v140q0 42 -13.5 59t-46.5 19v62h60q8 156 95 241t257 85
q95 0 148 -49t53 -129q0 -111 -131 -165q176 -114 176 -263q0 -77 -64.5 -142.5t-145.5 -65.5q-58 0 -88.5 24t-30.5 58q0 21 13.5 40.5t34.5 19.5q22 0 38 -12q-2 -10 -2 -16q0 -19 12 -35.5t30 -16.5q53 0 53 69q0 37 -47 97t-169 168z" />
    <glyph glyph-name="agrave" unicode="&#xe0;" horiz-adv-x="593" 
d="M573 96l21 -40q-65 -74 -166 -74q-37 0 -66.5 17t-40.5 49q-29 -29 -83 -47.5t-100 -18.5q-56 0 -90 27t-34 81q0 81 87 131t221 63q0 69 -19 97.5t-55 28.5q-38 0 -65 -17.5t-27 -36.5q0 -21 11 -32l-49 -30l-65 87q61 57 126 82t149 25t132 -46t48 -130q0 -42 -6 -87.5
t-6 -83.5q0 -36 9 -49.5t30 -13.5q22 0 38 18zM322 227q-128 -30 -128 -104q0 -23 13.5 -39t35.5 -16q38 0 57 35t22 124zM382 560h-66l-143 81q-45 26 -45 58q0 25 17.5 42t42.5 17q46 0 85 -51z" />
    <glyph glyph-name="aacute" unicode="&#xe1;" horiz-adv-x="593" 
d="M573 96l21 -40q-65 -74 -166 -74q-37 0 -66.5 17t-40.5 49q-29 -29 -83 -47.5t-100 -18.5q-56 0 -90 27t-34 81q0 81 87 131t221 63q0 69 -19 97.5t-55 28.5q-38 0 -65 -17.5t-27 -36.5q0 -21 11 -32l-49 -30l-65 87q61 57 126 82t149 25t132 -46t48 -130q0 -42 -6 -87.5
t-6 -83.5q0 -36 9 -49.5t30 -13.5q22 0 38 18zM322 227q-128 -30 -128 -104q0 -23 13.5 -39t35.5 -16q38 0 57 35t22 124zM278 560h-66l109 147q39 51 85 51q25 0 42.5 -17t17.5 -42q0 -32 -45 -58z" />
    <glyph glyph-name="acircumflex" unicode="&#xe2;" horiz-adv-x="593" 
d="M573 96l21 -40q-65 -74 -166 -74q-37 0 -66.5 17t-40.5 49q-29 -29 -83 -47.5t-100 -18.5q-56 0 -90 27t-34 81q0 81 87 131t221 63q0 69 -19 97.5t-55 28.5q-38 0 -65 -17.5t-27 -36.5q0 -21 11 -32l-49 -30l-65 87q61 57 126 82t149 25t132 -46t48 -130q0 -42 -6 -87.5
t-6 -83.5q0 -36 9 -49.5t30 -13.5q22 0 38 18zM322 227q-128 -30 -128 -104q0 -23 13.5 -39t35.5 -16q38 0 57 35t22 124zM297 654l-107 -94h-78l123 182h125l122 -182h-77z" />
    <glyph glyph-name="atilde" unicode="&#xe3;" horiz-adv-x="593" 
d="M573 96l21 -40q-65 -74 -166 -74q-37 0 -66.5 17t-40.5 49q-29 -29 -83 -47.5t-100 -18.5q-56 0 -90 27t-34 81q0 81 87 131t221 63q0 69 -19 97.5t-55 28.5q-38 0 -65 -17.5t-27 -36.5q0 -21 11 -32l-49 -30l-65 87q61 57 126 82t149 25t132 -46t48 -130q0 -42 -6 -87.5
t-6 -83.5q0 -36 9 -49.5t30 -13.5q22 0 38 18zM322 227q-128 -30 -128 -104q0 -23 13.5 -39t35.5 -16q38 0 57 35t22 124zM442 722h54q-12 -60 -42.5 -103t-83.5 -43q-42 0 -98.5 26t-72.5 26q-35 0 -48 -48h-53q25 146 134 146q26 0 84.5 -26t76.5 -26q20 0 30.5 12.5
t18.5 35.5z" />
    <glyph glyph-name="adieresis" unicode="&#xe4;" horiz-adv-x="593" 
d="M573 96l21 -40q-65 -74 -166 -74q-37 0 -66.5 17t-40.5 49q-29 -29 -83 -47.5t-100 -18.5q-56 0 -90 27t-34 81q0 81 87 131t221 63q0 69 -19 97.5t-55 28.5q-38 0 -65 -17.5t-27 -36.5q0 -21 11 -32l-49 -30l-65 87q61 57 126 82t149 25t132 -46t48 -130q0 -42 -6 -87.5
t-6 -83.5q0 -36 9 -49.5t30 -13.5q22 0 38 18zM322 227q-128 -30 -128 -104q0 -23 13.5 -39t35.5 -16q38 0 57 35t22 124zM439 722q26 0 41.5 -16t15.5 -42q0 -37 -36.5 -67.5t-74.5 -30.5q-25 0 -42 15.5t-17 40.5q0 36 38 68t75 32zM211 722q26 0 41.5 -16t15.5 -42
q0 -37 -36.5 -67.5t-74.5 -30.5q-25 0 -42 15.5t-17 40.5q0 36 38 68t75 32z" />
    <glyph glyph-name="aring" unicode="&#xe5;" horiz-adv-x="593" 
d="M573 96l21 -40q-65 -74 -166 -74q-37 0 -66.5 17t-40.5 49q-29 -29 -83 -47.5t-100 -18.5q-56 0 -90 27t-34 81q0 81 87 131t221 63q0 69 -19 97.5t-55 28.5q-38 0 -65 -17.5t-27 -36.5q0 -21 11 -32l-49 -30l-65 87q61 57 126 82t149 25t132 -46t48 -130q0 -42 -6 -87.5
t-6 -83.5q0 -36 9 -49.5t30 -13.5q22 0 38 18zM322 227q-128 -30 -128 -104q0 -23 13.5 -39t35.5 -16q38 0 57 35t22 124zM297 778q46 0 81 -33.5t35 -81.5t-35 -81.5t-81 -33.5t-81 33.5t-35 81.5t35 81.5t81 33.5zM297 712q-20 0 -35 -15t-15 -34t15 -34t35 -15t35 15
t15 34t-15 34t-35 15z" />
    <glyph glyph-name="ae" unicode="&#xe6;" horiz-adv-x="852" 
d="M248 72q31 0 80 32q2 2 10.5 10t9.5 9q-22 51 -24 110q-50 -4 -90 -28t-40 -70q0 -63 54 -63zM816 250h-316q4 -70 52 -110t125 -40q53 0 98 47l41 -32q-91 -133 -231 -133q-142 0 -205 93q-88 -93 -213 -93q-153 0 -153 111q0 75 83.5 131t226.5 67q-1 69 -19 94t-60 25
q-39 0 -64 -17t-25 -37q0 -21 11 -32l-49 -30l-65 87q114 107 249 107q88 0 127 -67q69 67 172 67q109 0 163 -61.5t52 -176.5zM496 312h168q-2 114 -81 114q-45 0 -66 -35t-21 -79z" />
    <glyph glyph-name="ccedilla" unicode="&#xe7;" horiz-adv-x="537" 
d="M479 145l40 -39q-50 -59 -97.5 -88.5t-112.5 -33.5l-16 -36q21 6 42 6q31 0 54.5 -24t23.5 -59q0 -52 -45 -73.5t-103 -21.5q-39 0 -92 19l18 54q51 -17 71 -17t33.5 8.5t13.5 21.5q0 15 -11 25.5t-29 10.5q-15 0 -29 -6l-16 9l39 82q-99 5 -166 67.5t-67 161.5
q0 118 86 197t214 79q74 0 117.5 -27t43.5 -66q0 -33 -20 -52.5t-51 -19.5q-23 0 -43.5 16t-32.5 35.5t-29.5 35.5t-36.5 16q-33 0 -58.5 -35.5t-25.5 -94.5q0 -75 53 -135.5t128 -60.5q65 0 104 45z" />
    <glyph glyph-name="egrave" unicode="&#xe8;" horiz-adv-x="556" 
d="M520 250h-316q4 -70 52 -110t125 -40q53 0 98 47l41 -32q-91 -133 -231 -133q-110 0 -184.5 62.5t-74.5 171.5q0 113 80 192.5t195 79.5q109 0 163 -61.5t52 -176.5zM200 312h168q-2 114 -81 114q-45 0 -66 -35t-21 -79zM363 560h-66l-143 81q-45 26 -45 58q0 25 17.5 42
t42.5 17q46 0 85 -51z" />
    <glyph glyph-name="eacute" unicode="&#xe9;" horiz-adv-x="556" 
d="M520 250h-316q4 -70 52 -110t125 -40q53 0 98 47l41 -32q-91 -133 -231 -133q-110 0 -184.5 62.5t-74.5 171.5q0 113 80 192.5t195 79.5q109 0 163 -61.5t52 -176.5zM200 312h168q-2 114 -81 114q-45 0 -66 -35t-21 -79zM259 560h-66l109 147q39 51 85 51q25 0 42.5 -17
t17.5 -42q0 -32 -45 -58z" />
    <glyph glyph-name="ecircumflex" unicode="&#xea;" horiz-adv-x="556" 
d="M520 250h-316q4 -70 52 -110t125 -40q53 0 98 47l41 -32q-91 -133 -231 -133q-110 0 -184.5 62.5t-74.5 171.5q0 113 80 192.5t195 79.5q109 0 163 -61.5t52 -176.5zM200 312h168q-2 114 -81 114q-45 0 -66 -35t-21 -79zM278 654l-107 -94h-78l123 182h125l122 -182h-77z
" />
    <glyph glyph-name="edieresis" unicode="&#xeb;" horiz-adv-x="556" 
d="M520 250h-316q4 -70 52 -110t125 -40q53 0 98 47l41 -32q-91 -133 -231 -133q-110 0 -184.5 62.5t-74.5 171.5q0 113 80 192.5t195 79.5q109 0 163 -61.5t52 -176.5zM200 312h168q-2 114 -81 114q-45 0 -66 -35t-21 -79zM420 722q26 0 41.5 -16t15.5 -42
q0 -37 -36.5 -67.5t-74.5 -30.5q-25 0 -42 15.5t-17 40.5q0 36 38 68t75 32zM192 722q26 0 41.5 -16t15.5 -42q0 -37 -36.5 -67.5t-74.5 -30.5q-25 0 -42 15.5t-17 40.5q0 36 38 68t75 32z" />
    <glyph glyph-name="igrave" unicode="&#xec;" horiz-adv-x="370" 
d="M32 380v62q75 1 121.5 11t99.5 35h48q-13 -54 -13 -134v-200q0 -60 13 -80t51 -22v-62q-9 0 -53.5 5t-107.5 5t-107.5 -5t-53.5 -5v62q34 5 48 22.5t14 57.5v186q0 28 -15 45t-45 17zM276 560h-66l-143 81q-45 26 -45 58q0 25 17.5 42t42.5 17q46 0 85 -51z" />
    <glyph glyph-name="iacute" unicode="&#xed;" horiz-adv-x="370" 
d="M32 380v62q75 1 121.5 11t99.5 35h48q-13 -54 -13 -134v-200q0 -60 13 -80t51 -22v-62q-9 0 -53.5 5t-107.5 5t-107.5 -5t-53.5 -5v62q34 5 48 22.5t14 57.5v186q0 28 -15 45t-45 17zM172 560h-66l109 147q39 51 85 51q25 0 42.5 -17t17.5 -42q0 -32 -45 -58z" />
    <glyph glyph-name="icircumflex" unicode="&#xee;" horiz-adv-x="370" 
d="M32 380v62q75 1 121.5 11t99.5 35h48q-13 -54 -13 -134v-200q0 -60 13 -80t51 -22v-62q-9 0 -53.5 5t-107.5 5t-107.5 -5t-53.5 -5v62q34 5 48 22.5t14 57.5v186q0 28 -15 45t-45 17zM191 654l-107 -94h-78l123 182h125l122 -182h-77z" />
    <glyph glyph-name="idieresis" unicode="&#xef;" horiz-adv-x="370" 
d="M32 380v62q75 1 121.5 11t99.5 35h48q-13 -54 -13 -134v-200q0 -60 13 -80t51 -22v-62q-9 0 -53.5 5t-107.5 5t-107.5 -5t-53.5 -5v62q34 5 48 22.5t14 57.5v186q0 28 -15 45t-45 17zM333 722q26 0 41.5 -16t15.5 -42q0 -37 -36.5 -67.5t-74.5 -30.5q-25 0 -42 15.5
t-17 40.5q0 36 38 68t75 32zM105 722q26 0 41.5 -16t15.5 -42q0 -37 -36.5 -67.5t-74.5 -30.5q-25 0 -42 15.5t-17 40.5q0 36 38 68t75 32z" />
    <glyph glyph-name="eth" unicode="&#xf0;" horiz-adv-x="648" 
d="M234 268q0 -92 31 -158t75 -66q34 0 54 40.5t20 117.5q0 92 -31 158t-75 66q-34 0 -54 -40.5t-20 -117.5zM280 597l-110 -77l-44 58l107 76q-54 60 -115 98l35 44q81 -25 165 -82l116 82l46 -57l-100 -71q105 -87 171.5 -198.5t66.5 -227.5q0 -128 -89.5 -194t-226.5 -66
q-116 0 -194 66t-78 180q0 127 89 193.5t223 66.5q-27 62 -62 109z" />
    <glyph glyph-name="ntilde" unicode="&#xf1;" horiz-adv-x="685" 
d="M671 52v-62q-8 0 -49.5 5t-101.5 5t-101.5 -5t-49.5 -5v64q23 -1 33.5 16.5t10.5 57.5v160q0 43 -18 63.5t-45 20.5q-33 0 -67 -30v-214q0 -40 10.5 -57.5t33.5 -16.5v-64q-8 0 -49.5 5t-100.5 5q-60 0 -101.5 -5t-49.5 -5v62q61 -2 61 103v163q0 28 -15 45t-45 17v62
q100 1 201 46h54q-6 -30 -6 -76q87 76 170 76q80 0 121.5 -45t41.5 -127v-190q0 -39 16 -57t46 -17zM488 722h54q-12 -60 -42.5 -103t-83.5 -43q-42 0 -98.5 26t-72.5 26q-35 0 -48 -48h-53q25 146 134 146q26 0 84.5 -26t76.5 -26q20 0 30.5 12.5t18.5 35.5z" />
    <glyph glyph-name="ograve" unicode="&#xf2;" horiz-adv-x="648" 
d="M346 488q116 0 194 -66t78 -180q0 -128 -89.5 -194t-226.5 -66q-116 0 -194 66t-78 180q0 128 89.5 194t226.5 66zM234 268q0 -92 31 -158t75 -66q34 0 54 40.5t20 117.5q0 92 -31 158t-75 66q-34 0 -54 -40.5t-20 -117.5zM409 560h-66l-143 81q-45 26 -45 58
q0 25 17.5 42t42.5 17q46 0 85 -51z" />
    <glyph glyph-name="oacute" unicode="&#xf3;" horiz-adv-x="648" 
d="M346 488q116 0 194 -66t78 -180q0 -128 -89.5 -194t-226.5 -66q-116 0 -194 66t-78 180q0 128 89.5 194t226.5 66zM234 268q0 -92 31 -158t75 -66q34 0 54 40.5t20 117.5q0 92 -31 158t-75 66q-34 0 -54 -40.5t-20 -117.5zM305 560h-66l109 147q39 51 85 51
q25 0 42.5 -17t17.5 -42q0 -32 -45 -58z" />
    <glyph glyph-name="ocircumflex" unicode="&#xf4;" horiz-adv-x="648" 
d="M346 488q116 0 194 -66t78 -180q0 -128 -89.5 -194t-226.5 -66q-116 0 -194 66t-78 180q0 128 89.5 194t226.5 66zM234 268q0 -92 31 -158t75 -66q34 0 54 40.5t20 117.5q0 92 -31 158t-75 66q-34 0 -54 -40.5t-20 -117.5zM324 654l-107 -94h-78l123 182h125l122 -182
h-77z" />
    <glyph glyph-name="otilde" unicode="&#xf5;" horiz-adv-x="648" 
d="M346 488q116 0 194 -66t78 -180q0 -128 -89.5 -194t-226.5 -66q-116 0 -194 66t-78 180q0 128 89.5 194t226.5 66zM234 268q0 -92 31 -158t75 -66q34 0 54 40.5t20 117.5q0 92 -31 158t-75 66q-34 0 -54 -40.5t-20 -117.5zM469 722h54q-12 -60 -42.5 -103t-83.5 -43
q-42 0 -98.5 26t-72.5 26q-35 0 -48 -48h-53q25 146 134 146q26 0 84.5 -26t76.5 -26q20 0 30.5 12.5t18.5 35.5z" />
    <glyph glyph-name="odieresis" unicode="&#xf6;" horiz-adv-x="648" 
d="M346 488q116 0 194 -66t78 -180q0 -128 -89.5 -194t-226.5 -66q-116 0 -194 66t-78 180q0 128 89.5 194t226.5 66zM234 268q0 -92 31 -158t75 -66q34 0 54 40.5t20 117.5q0 92 -31 158t-75 66q-34 0 -54 -40.5t-20 -117.5zM466 722q26 0 41.5 -16t15.5 -42
q0 -37 -36.5 -67.5t-74.5 -30.5q-25 0 -42 15.5t-17 40.5q0 36 38 68t75 32zM238 722q26 0 41.5 -16t15.5 -42q0 -37 -36.5 -67.5t-74.5 -30.5q-25 0 -42 15.5t-17 40.5q0 36 38 68t75 32z" />
    <glyph glyph-name="divide" unicode="&#xf7;" horiz-adv-x="600" 
d="M535 171h-470v128h470v-128zM206 432q0 39 27.5 66.5t66.5 27.5t66.5 -27.5t27.5 -66.5t-27.5 -66.5t-66.5 -27.5t-66.5 27.5t-27.5 66.5zM206 38q0 39 27.5 66.5t66.5 27.5t66.5 -27.5t27.5 -66.5t-27.5 -66.5t-66.5 -27.5t-66.5 27.5t-27.5 66.5z" />
    <glyph glyph-name="oslash" unicode="&#xf8;" horiz-adv-x="648" 
d="M242 183l138 184q-30 59 -72 59q-34 0 -54 -40.5t-20 -117.5q0 -42 8 -85zM406 287l-138 -184q31 -59 72 -59q34 0 54 40.5t20 117.5q0 45 -8 85zM192 1l-71 -95h-87l95 127q-99 67 -99 195t89.5 194t226.5 66q62 0 110 -19l71 95h87l-95 -126q99 -68 99 -196t-89.5 -194
t-226.5 -66q-62 0 -110 19z" />
    <glyph glyph-name="ugrave" unicode="&#xf9;" horiz-adv-x="685" 
d="M12 408v62q165 0 217 18h49q-11 -99 -11 -234q0 -96 14.5 -129t52.5 -33q41 0 64 53v203q0 33 -12 46.5t-39 13.5v62q170 0 205 18h56q-14 -59 -14 -150v-156q0 -62 13 -81.5t50 -20.5v-62q-78 0 -209 -36q-14 2 -29.5 24t-19.5 44q-37 -29 -85.5 -48.5t-90.5 -19.5
q-81 0 -116.5 33.5t-35.5 108.5q0 42 2 115.5t2 107.5q0 33 -14.5 46t-48.5 15zM422 560h-66l-143 81q-45 26 -45 58q0 25 17.5 42t42.5 17q46 0 85 -51z" />
    <glyph glyph-name="uacute" unicode="&#xfa;" horiz-adv-x="685" 
d="M12 408v62q165 0 217 18h49q-11 -99 -11 -234q0 -96 14.5 -129t52.5 -33q41 0 64 53v203q0 33 -12 46.5t-39 13.5v62q170 0 205 18h56q-14 -59 -14 -150v-156q0 -62 13 -81.5t50 -20.5v-62q-78 0 -209 -36q-14 2 -29.5 24t-19.5 44q-37 -29 -85.5 -48.5t-90.5 -19.5
q-81 0 -116.5 33.5t-35.5 108.5q0 42 2 115.5t2 107.5q0 33 -14.5 46t-48.5 15zM318 560h-66l109 147q39 51 85 51q25 0 42.5 -17t17.5 -42q0 -32 -45 -58z" />
    <glyph glyph-name="ucircumflex" unicode="&#xfb;" horiz-adv-x="685" 
d="M12 408v62q165 0 217 18h49q-11 -99 -11 -234q0 -96 14.5 -129t52.5 -33q41 0 64 53v203q0 33 -12 46.5t-39 13.5v62q170 0 205 18h56q-14 -59 -14 -150v-156q0 -62 13 -81.5t50 -20.5v-62q-78 0 -209 -36q-14 2 -29.5 24t-19.5 44q-37 -29 -85.5 -48.5t-90.5 -19.5
q-81 0 -116.5 33.5t-35.5 108.5q0 42 2 115.5t2 107.5q0 33 -14.5 46t-48.5 15zM337 654l-107 -94h-78l123 182h125l122 -182h-77z" />
    <glyph glyph-name="udieresis" unicode="&#xfc;" horiz-adv-x="685" 
d="M12 408v62q165 0 217 18h49q-11 -99 -11 -234q0 -96 14.5 -129t52.5 -33q41 0 64 53v203q0 33 -12 46.5t-39 13.5v62q170 0 205 18h56q-14 -59 -14 -150v-156q0 -62 13 -81.5t50 -20.5v-62q-78 0 -209 -36q-14 2 -29.5 24t-19.5 44q-37 -29 -85.5 -48.5t-90.5 -19.5
q-81 0 -116.5 33.5t-35.5 108.5q0 42 2 115.5t2 107.5q0 33 -14.5 46t-48.5 15zM479 722q26 0 41.5 -16t15.5 -42q0 -37 -36.5 -67.5t-74.5 -30.5q-25 0 -42 15.5t-17 40.5q0 36 38 68t75 32zM251 722q26 0 41.5 -16t15.5 -42q0 -37 -36.5 -67.5t-74.5 -30.5q-25 0 -42 15.5
t-17 40.5q0 36 38 68t75 32z" />
    <glyph glyph-name="yacute" unicode="&#xfd;" horiz-adv-x="593" 
d="M314 480v-62q-44 -5 -44 -34q0 -16 17.5 -49.5t87.5 -153.5q78 157 78 190q0 47 -66 47v62q29 0 63 -5t55 -5q19 0 53 5t63 5v-62q-39 -3 -54 -16t-39 -60l-200 -401q-54 -110 -106.5 -155.5t-109.5 -45.5q-52 0 -81.5 23t-29.5 57q0 31 18.5 51.5t50.5 20.5
q25 0 54.5 -24t49.5 -24q14 0 42.5 38.5t54.5 99.5l-200 347q-29 51 -48 68.5t-43 20.5v62q11 0 61.5 -5t105.5 -5q45 0 99.5 5t67.5 5zM278 560h-66l109 147q39 51 85 51q25 0 42.5 -17t17.5 -42q0 -32 -45 -58z" />
    <glyph glyph-name="thorn" unicode="&#xfe;" 
d="M282 290v-209q26 -34 84 -37q35 2 58 38t23 114q0 89 -30.5 139.5t-75.5 50.5q-59 0 -59 -96zM282 1v-93q0 -48 22 -73.5t77 -26.5v-62q-9 0 -58.5 5t-119.5 5q-71 0 -120.5 -5t-58.5 -5v62q33 1 47.5 26.5t14.5 81.5v686q0 28 -15 45t-45 17v62q115 1 221 70h48
q-13 -54 -13 -134v-240q78 66 154 66q93 0 147 -70.5t54 -166.5q0 -115 -65.5 -192t-178.5 -77q-49 0 -111 19z" />
    <glyph glyph-name="ydieresis" unicode="&#xff;" horiz-adv-x="593" 
d="M314 480v-62q-44 -5 -44 -34q0 -16 17.5 -49.5t87.5 -153.5q78 157 78 190q0 47 -66 47v62q29 0 63 -5t55 -5q19 0 53 5t63 5v-62q-39 -3 -54 -16t-39 -60l-200 -401q-54 -110 -106.5 -155.5t-109.5 -45.5q-52 0 -81.5 23t-29.5 57q0 31 18.5 51.5t50.5 20.5
q25 0 54.5 -24t49.5 -24q14 0 42.5 38.5t54.5 99.5l-200 347q-29 51 -48 68.5t-43 20.5v62q11 0 61.5 -5t105.5 -5q45 0 99.5 5t67.5 5zM439 722q26 0 41.5 -16t15.5 -42q0 -37 -36.5 -67.5t-74.5 -30.5q-25 0 -42 15.5t-17 40.5q0 36 38 68t75 32zM211 722q26 0 41.5 -16
t15.5 -42q0 -37 -36.5 -67.5t-74.5 -30.5q-25 0 -42 15.5t-17 40.5q0 36 38 68t75 32z" />
    <glyph glyph-name="dotlessi" unicode="&#x131;" horiz-adv-x="370" 
d="M32 380v62q75 1 121.5 11t99.5 35h48q-13 -54 -13 -134v-200q0 -60 13 -80t51 -22v-62q-9 0 -53.5 5t-107.5 5t-107.5 -5t-53.5 -5v62q34 5 48 22.5t14 57.5v186q0 28 -15 45t-45 17z" />
    <glyph glyph-name="Lslash" unicode="&#x141;" horiz-adv-x="741" 
d="M504 512l-152 -104v-232q0 -49 31 -77.5t81 -28.5q73 0 121 38.5t89 121.5h56q0 -35 -19 -113t-19 -149q-51 23 -108.5 27.5t-299.5 4.5q-134 0 -202 -6q-11 -1 -20 -2t-13 -2t-7 -1.5t-4 -0.5h-2v70q46 3 68 30.5t22 91.5v74l-76 -52v90l76 52v188q0 64 -22 91.5
t-68 30.5v70q11 0 68 -6t138 -6t137.5 6t67.5 6v-70q-58 -1 -76.5 -20.5t-18.5 -71.5v-65l152 103v-88z" />
    <glyph glyph-name="lslash" unicode="&#x142;" horiz-adv-x="370" 
d="M365 552l-77 -69v-329q0 -60 13 -80t51 -22v-62q-9 0 -53.5 5t-107.5 5t-107.5 -5t-53.5 -5v62q34 5 48 22.5t14 57.5v175l-81 -73v94l81 73v201q0 28 -15 45t-45 17v62q115 1 221 70h48q-13 -54 -13 -134v-85l77 69v-94z" />
    <glyph glyph-name="OE" unicode="&#x152;" horiz-adv-x="1167" 
d="M792 644v-238h88q57 0 79.5 21.5t23.5 63.5h52q4 -17 4 -53q0 -12 -2 -36t-2 -33t2 -33t2 -36q0 -36 -4 -53h-52q-1 45 -23.5 67t-79.5 22h-88v-188q0 -90 110 -90q67 0 126.5 42t71.5 107h56q0 -37 -13.5 -109t-13.5 -130q-2 1 -17 6t-20 6.5t-20.5 5.5t-26.5 5.5
t-28.5 4t-36 3.5t-40.5 1h-212q-63 0 -153 -11t-155 -11q-186 0 -285 88.5t-99 267.5q0 197 111.5 298.5t304.5 101.5q45 0 131 -11q84 -11 133 -11h230q108 0 170 25q-12 -29 -12 -125q0 -42 -6 -57h-50q0 99 -164 99q-34 0 -92 -10zM580 238v290q0 74 -26.5 105t-87.5 31
q-80 0 -135 -72t-55 -222q0 -169 54.5 -245.5t135.5 -76.5q60 0 87.5 45.5t26.5 144.5z" />
    <glyph glyph-name="oe" unicode="&#x153;" horiz-adv-x="944" 
d="M226 268q0 -92 31 -158t75 -66q34 0 54 40.5t20 117.5q0 92 -31 158t-75 66q-34 0 -54 -40.5t-20 -117.5zM908 250h-328q4 -69 57 -109.5t132 -40.5q53 0 98 47l41 -32q-91 -133 -231 -133q-120 0 -192 70q-61 -70 -183 -70q-121 0 -200.5 66t-79.5 180q0 64 25.5 115.5
t67 82t90 46.5t97.5 16q124 0 193 -83q78 83 198 83q109 0 163 -61.5t52 -176.5zM576 312h180q-2 114 -81 114q-46 0 -72.5 -36t-26.5 -78z" />
    <glyph glyph-name="Scaron" unicode="&#x160;" horiz-adv-x="685" 
d="M567 522h-43q0 72 -47.5 109t-132.5 37q-45 0 -70 -20.5t-25 -55.5q0 -30 21 -54t55 -41.5t75.5 -34t82.5 -38t75 -47.5t55 -67t21 -93q0 -116 -89.5 -177.5t-224.5 -61.5q-52 0 -103 11q-44 11 -83 11q-35 0 -63.5 -5.5t-40.5 -4.5q22 20 31.5 60t15 94.5t14.5 85.5h48
q1 -81 60 -133.5t141 -52.5q54 0 83 23.5t29 60.5q0 29 -21 54.5t-55 45t-75 39t-82.5 42.5t-75.5 50t-55 67t-21 88q0 74 41 125t101.5 73t133.5 22q61 0 114.5 -15t60.5 -15q19 0 46 6.5t52 7.5q-22 -48 -28.5 -103t-20.5 -93zM300 959l107 -94l108 94h77l-122 -182h-125
l-123 182h78z" />
    <glyph glyph-name="scaron" unicode="&#x161;" horiz-adv-x="500" 
d="M63 167l41 -3q9 -46 49.5 -86t86.5 -40q59 0 59 49q0 21 -26 39t-63 35t-74.5 37t-63.5 54.5t-26 78.5q0 69 51 113t143 44q56 0 88 -9q38 -9 42 -9q28 0 37 18h39q-9 -35 -13.5 -81.5t-13.5 -66.5h-39q-9 42 -38 69t-75 27q-59 0 -59 -39q0 -19 26 -36t63 -34t74.5 -38
t63.5 -58.5t26 -85.5q0 -81 -61 -122t-156 -41q-40 0 -81 9q-34 9 -48 9q-29 0 -37 -18h-49q17 40 21 99.5t13 85.5zM143 742l107 -94l108 94h77l-122 -182h-125l-123 182h78z" />
    <glyph glyph-name="Ydieresis" unicode="&#x178;" horiz-adv-x="758" 
d="M156 -12v70q56 0 83.5 25t27.5 64v132l-156 281q-30 54 -62 74t-82 20v70q15 0 96.5 -6t146.5 -6q53 0 109 6t74 6v-70q-56 0 -56 -28q0 -7 1 -12t5 -14t8.5 -18t15 -27.5t22 -38t31.5 -54.5t41 -72q27 41 53.5 81t37 55.5t20.5 32t12 25.5t2 22q0 21 -19 34.5t-51 13.5
v70q8 0 46 -6t92 -6t92 6t46 6v-70q-71 0 -135 -93l-164 -244v-191q0 -33 24.5 -50.5t90.5 -17.5v-70q-12 0 -74.5 6t-151.5 6t-151.5 -6t-74.5 -6zM573 939q26 0 41.5 -16t15.5 -42q0 -37 -36.5 -67.5t-74.5 -30.5q-25 0 -42 15.5t-17 40.5q0 36 38 68t75 32zM345 939
q26 0 41.5 -16t15.5 -42q0 -37 -36.5 -67.5t-74.5 -30.5q-25 0 -42 15.5t-17 40.5q0 36 38 68t75 32z" />
    <glyph glyph-name="Zcaron" unicode="&#x17d;" horiz-adv-x="778" 
d="M6 -12v63q45 35 80 78.5t81 111.5l268 401h-176q-58 0 -95.5 -30t-48.5 -87h-46q0 34 9 91.5t9 77.5q0 33 -12 64q10 -3 33.5 -12t37.5 -13t37 -10t50 -8.5t59 -2.5h262q106 0 180 18v-64q-27 -19 -57 -59t-86 -123q-9 -15 -14 -22l-263 -392h178q70 0 126.5 47.5
t79.5 113.5h46q0 -32 -22 -122.5t-22 -136.5q-41 28 -152 28h-398q-108 0 -144 -12zM334 959l107 -94l108 94h77l-122 -182h-125l-123 182h78z" />
    <glyph glyph-name="zcaron" unicode="&#x17e;" horiz-adv-x="593" 
d="M287 408h-85q-108 0 -120 -104h-48q1 33 11.5 101t11.5 94q41 -22 81 -25.5t226 -3.5q99 0 143 6q8 1 14 2t8.5 2t4.5 1.5t4 0.5h2l21 -44q-23 -18 -42 -37t-45 -53t-45.5 -63t-66 -98t-85.5 -125h99q54 0 93 31.5t57 87.5h48q-5 -66 -33 -130.5t-34 -90.5
q-51 29 -94 34.5t-213 5.5q-97 0 -143 -6q-6 -1 -11 -2t-8 -1.5t-4.5 -1t-2.5 -1.5h-1h-2l-24 44q51 45 106.5 118.5t176.5 257.5zM190 742l107 -94l108 94h77l-122 -182h-125l-123 182h78z" />
    <glyph glyph-name="florin" unicode="&#x192;" 
d="M434 406h124l-12 -62h-118q-6 -140 -34.5 -242.5t-75 -161t-101.5 -85.5t-121 -27q-51 0 -87 25.5t-36 74.5q0 29 19.5 50.5t43.5 21.5t33 -12q-7 -7 -7 -27q0 -63 58 -63q51 0 68 72.5t31 263.5q5 71 8 110h-112l10 62h109q13 134 95 231t206 97q64 0 98 -27t34 -72
q0 -29 -23.5 -50.5t-53.5 -21.5q-16 0 -23 5q4 18 4 39q0 53 -56 53q-35 0 -58 -42.5t-23 -122.5v-89z" />
    <glyph glyph-name="circumflex" unicode="&#x2c6;" horiz-adv-x="370" 
d="M185 654l-107 -94h-78l123 182h125l122 -182h-77z" />
    <glyph glyph-name="caron" unicode="&#x2c7;" horiz-adv-x="370" 
d="M78 742l107 -94l108 94h77l-122 -182h-125l-123 182h78z" />
    <glyph glyph-name="uni02C9" unicode="&#x2c9;" horiz-adv-x="370" 
d="M362 596h-354v90h354v-90z" />
    <glyph glyph-name="breve" unicode="&#x2d8;" horiz-adv-x="370" 
d="M22 730h58q3 -40 31 -59q24 -17 66 -17q49 0 77 16t36 60h58q-11 -170 -169 -170q-77 0 -117 45.5t-40 124.5z" />
    <glyph glyph-name="dotaccent" unicode="&#x2d9;" horiz-adv-x="370" 
d="M213 722q26 0 41.5 -16t15.5 -42q0 -37 -36.5 -67.5t-74.5 -30.5q-25 0 -42 15.5t-17 40.5q0 36 38 68t75 32z" />
    <glyph glyph-name="ring" unicode="&#x2da;" horiz-adv-x="370" 
d="M185 778q46 0 81 -33.5t35 -81.5t-35 -81.5t-81 -33.5t-81 33.5t-35 81.5t35 81.5t81 33.5zM185 712q-20 0 -35 -15t-15 -34t15 -34t35 -15t35 15t15 34t-15 34t-35 15z" />
    <glyph glyph-name="ogonek" unicode="&#x2db;" horiz-adv-x="370" 
d="M258 22v-15q-52 -18 -96.5 -49.5t-44.5 -72.5q0 -24 13 -38.5t34 -14.5q34 0 96 40l22 -40q-65 -56 -160 -56q-46 0 -77.5 26t-31.5 72q0 33 26 61t66.5 45.5t79.5 27.5t73 14z" />
    <glyph glyph-name="tilde" unicode="&#x2dc;" horiz-adv-x="370" 
d="M330 722h54q-12 -60 -42.5 -103t-83.5 -43q-42 0 -98.5 26t-72.5 26q-35 0 -48 -48h-53q25 146 134 146q26 0 84.5 -26t76.5 -26q20 0 30.5 12.5t18.5 35.5z" />
    <glyph glyph-name="hungarumlaut" unicode="&#x2dd;" horiz-adv-x="370" 
d="M48 560h-66l90 133q23 35 43.5 50t48.5 15q25 0 42.5 -17t17.5 -42q0 -31 -50 -62zM247 560h-66l109 147q39 51 85 51q25 0 42.5 -17t17.5 -42q0 -32 -45 -58z" />
    <glyph glyph-name="uni03A9" unicode="&#x3a9;" horiz-adv-x="872" 
d="M832 202l-35 -202h-320l-12 30q34 67 52.5 105.5t42 117.5t23.5 144q0 271 -151 271q-73 0 -108.5 -63t-35.5 -210q0 -62 21 -136t41 -120t52 -109l-10 -30h-323l-30 202h45q19 -44 37 -58t58 -14h98q-41 25 -69 45.5t-62 54.5t-52 78t-18 96q0 143 99.5 228t260.5 85
t259.5 -83.5t98.5 -223.5q0 -47 -18 -88.5t-52.5 -77.5t-65 -60t-75.5 -54h115q36 0 53 14t35 58h46z" />
    <glyph glyph-name="uni03BC" unicode="&#x3bc;" horiz-adv-x="685" 
d="M12 408v62q165 0 217 18h50q-11 -99 -11 -234q0 -96 14.5 -129t52.5 -33q40 0 63 53v203q0 33 -12 46.5t-39 13.5v62q170 0 205 18h56q-14 -59 -14 -150v-156q0 -62 13 -81.5t50 -20.5v-62q-78 0 -209 -36q-14 2 -29.5 24t-19.5 44q-59 -47 -131 -62v-80q0 -91 14 -150
h-91q-78 0 -120 -5q-9 -1 -21 -2t-20.5 -2t-17.5 -1v62q33 2 46.5 15t13.5 46v476q0 33 -13.5 46t-46.5 15z" />
    <glyph glyph-name="pi" unicode="&#x3c0;" horiz-adv-x="704" 
d="M640 518l38 -10q-2 -37 -18.5 -88t-30.5 -66q-24 -8 -72 -8q-6 -71 -5 -173q1 -86 45 -86q17 0 45 13l15 -37q-23 -31 -67 -54t-88 -23q-134 0 -134 147q0 53 10 216q-36 0 -69.5 0.5t-49.5 0.5v-5q0 -83 -8.5 -149t-22 -104t-23 -56.5t-19.5 -29.5q-51 -17 -88 -20
l-11 29q53 74 80 167.5t27 170.5q-47 1 -76.5 -6t-69.5 -29l-22 40q1 1 13 17.5t14 19t13.5 17t16.5 17.5t17.5 14t21 14.5t23.5 10.5t29 9.5t32 4.5t38 2q46 0 158 -2q29 0 85.5 -0.5t81.5 -0.5q27 0 43 8t28 29z" />
    <glyph glyph-name="uni2010" unicode="&#x2010;" horiz-adv-x="389" 
d="M43 159v152h304v-152h-304z" />
    <glyph glyph-name="endash" unicode="&#x2013;" horiz-adv-x="500" 
d="M500 299v-128h-500v128h500z" />
    <glyph glyph-name="emdash" unicode="&#x2014;" horiz-adv-x="1000" 
d="M0 299h1000v-128h-1000v128z" />
    <glyph glyph-name="quoteleft" unicode="&#x2018;" horiz-adv-x="296" 
d="M235 752v-48q-103 -9 -103 -118q18 14 46 14q29 0 45.5 -22t16.5 -55q0 -41 -29.5 -71t-70.5 -30q-47 0 -74.5 31.5t-27.5 80.5q0 92 57 153t140 65z" />
    <glyph glyph-name="quoteright" unicode="&#x2019;" horiz-adv-x="296" 
d="M61 404v48q103 9 103 118q-18 -14 -46 -14q-29 0 -45.5 22t-16.5 55q0 41 29.5 71t70.5 30q47 0 74.5 -31.5t27.5 -80.5q0 -92 -57 -153t-140 -65z" />
    <glyph glyph-name="quotesinglbase" unicode="&#x201a;" horiz-adv-x="296" 
d="M61 -172v48q103 9 103 118q-5 -4 -21 -11q-12 -3 -25 -3q-29 0 -45.5 22t-16.5 55q0 41 29.5 71t70.5 30q47 0 74.5 -31.5t27.5 -80.5q0 -92 -57 -153t-140 -65z" />
    <glyph glyph-name="quotedblleft" unicode="&#x201c;" horiz-adv-x="556" 
d="M235 752v-48q-103 -9 -103 -118q18 14 46 14q29 0 45.5 -22t16.5 -55q0 -41 -29.5 -71t-70.5 -30q-47 0 -74.5 31.5t-27.5 80.5q0 92 57 153t140 65zM494 752v-48q-103 -9 -103 -118q18 14 46 14q29 0 45.5 -22t16.5 -55q0 -41 -29.5 -71t-70.5 -30q-47 0 -74.5 31.5
t-27.5 80.5q0 92 57 153t140 65z" />
    <glyph glyph-name="quotedblright" unicode="&#x201d;" horiz-adv-x="556" 
d="M62 404v48q103 9 103 118q-18 -14 -46 -14q-29 0 -45.5 22t-16.5 55q0 41 29.5 71t70.5 30q47 0 74.5 -31.5t27.5 -80.5q0 -92 -57 -153t-140 -65zM321 404v48q103 9 103 118q-18 -14 -46 -14q-29 0 -45.5 22t-16.5 55q0 41 29.5 71t70.5 30q47 0 74.5 -31.5t27.5 -80.5
q0 -92 -57 -153t-140 -65z" />
    <glyph glyph-name="quotedblbase" unicode="&#x201e;" horiz-adv-x="556" 
d="M62 -172v48q103 9 103 118q-5 -4 -21 -11q-12 -3 -25 -3q-29 0 -45.5 22t-16.5 55q0 41 29.5 71t70.5 30q47 0 74.5 -31.5t27.5 -80.5q0 -92 -57 -153t-140 -65zM321 -172v48q103 9 103 118q-5 -4 -21 -11q-12 -3 -25 -3q-29 0 -45.5 22t-16.5 55q0 41 29.5 71t70.5 30
q47 0 74.5 -31.5t27.5 -80.5q0 -92 -57 -153t-140 -65z" />
    <glyph glyph-name="dagger" unicode="&#x2020;" 
d="M481 480h-84v-46q0 -63 48 -118q-46 -146 -66.5 -273.5t-20.5 -278.5h-50q0 151 -20.5 278.5t-66.5 273.5q48 55 48 118v46h-84q-48 0 -61 -46h-44q0 13 4 41.5t4 51.5t-4 51.5t-4 41.5h44q13 -46 61 -46h85v90q0 37 -16.5 54.5t-56.5 21.5v44q27 0 65 -5t71 -5t71 5
t65 5v-44q-40 -4 -56.5 -21.5t-16.5 -54.5v-90h85q48 0 61 46h44q0 -13 -4 -41.5t-4 -51.5t4 -51.5t4 -41.5h-44q-13 46 -61 46z" />
    <glyph glyph-name="daggerdbl" unicode="&#x2021;" 
d="M481 470h-84v-42q0 -91 48 -146q-48 -55 -48 -146v-42h84q48 0 61 46h44q0 -13 -4 -41.5t-4 -51.5t4 -51.5t4 -41.5h-44q-13 46 -61 46h-85v-102q0 -37 16.5 -54.5t56.5 -21.5v-44q-27 0 -65 5t-71 5t-71 -5t-65 -5v44q40 4 56.5 21.5t16.5 54.5v102h-85q-48 0 -61 -46
h-44q0 13 4 41.5t4 51.5t-4 51.5t-4 41.5h44q13 -46 61 -46h84v42q0 91 -48 146q48 55 48 146v42h-84q-48 0 -61 -46h-44q0 13 4 41.5t4 51.5t-4 51.5t-4 41.5h44q13 -46 61 -46h85v102q0 37 -16.5 54.5t-56.5 21.5v44q27 0 65 -5t71 -5t71 5t65 5v-44q-40 -4 -56.5 -21.5
t-16.5 -54.5v-102h85q48 0 61 46h44q0 -13 -4 -41.5t-4 -51.5t4 -51.5t4 -41.5h-44q-13 46 -61 46z" />
    <glyph glyph-name="bullet" unicode="&#x2022;" horiz-adv-x="500" 
d="M72 356q0 74 52 126t126 52t126 -52t52 -126t-52 -126t-126 -52t-126 52t-52 126z" />
    <glyph glyph-name="ellipsis" unicode="&#x2026;" horiz-adv-x="1000" 
d="M167 172q40 0 70.5 -28t30.5 -67t-30.5 -67t-70.5 -28t-70.5 28t-30.5 67t30.5 67t70.5 28zM500 172q40 0 70.5 -28t30.5 -67t-30.5 -67t-70.5 -28t-70.5 28t-30.5 67t30.5 67t70.5 28zM833 172q40 0 70.5 -28t30.5 -67t-30.5 -67t-70.5 -28t-70.5 28t-30.5 67t30.5 67
t70.5 28z" />
    <glyph glyph-name="perthousand" unicode="&#x2030;" horiz-adv-x="1167" 
d="M965 326q-26 0 -37 -35.5t-11 -110.5t11 -110.5t37 -35.5t37 35.5t11 110.5t-11 110.5t-37 35.5zM647 712l-418 -734h-86l418 734h86zM202 656q-26 0 -37 -35.5t-11 -110.5t11 -110.5t37 -35.5t37 35.5t11 110.5t-11 110.5t-37 35.5zM965 382q87 0 131.5 -57t44.5 -145
t-44.5 -145t-131.5 -57t-131.5 57t-44.5 145t44.5 145t131.5 57zM202 712q87 0 131.5 -57t44.5 -145t-44.5 -145t-131.5 -57t-131.5 57t-44.5 145t44.5 145t131.5 57zM591 382q87 0 131.5 -57t44.5 -145t-44.5 -145t-131.5 -57t-131.5 57t-44.5 145t44.5 145t131.5 57z
M591 326q-26 0 -37 -35.5t-11 -110.5t11 -110.5t37 -35.5t37 35.5t11 110.5t-11 110.5t-37 35.5z" />
    <glyph glyph-name="guilsinglleft" unicode="&#x2039;" horiz-adv-x="333" 
d="M236 438l44 -32l-116 -171l116 -173l-44 -30l-194 174v56z" />
    <glyph glyph-name="guilsinglright" unicode="&#x203a;" horiz-adv-x="333" 
d="M53 406l44 32l194 -176v-56l-194 -174l-44 30l116 173z" />
    <glyph glyph-name="fraction" unicode="&#x2044;" horiz-adv-x="167" 
d="M-73 -22h-94l406 734h95z" />
    <glyph glyph-name="Euro" unicode="&#x20ac;" 
d="M615 549h-31q-18 104 -127 104q-71 0 -107 -58t-45 -171h245l-26 -57h-222v-32v-30h193l-26 -57h-164q7 -103 46.5 -157.5t107.5 -54.5q106 0 125 100h31l-9 -107q-59 -50 -194 -50q-143 0 -217.5 67.5t-93.5 201.5h-81l26 57h46q-2 11 -2 33q0 20 1 29h-71l26 57h50
q20 141 94.5 214.5t221.5 73.5q137 0 194 -51z" />
    <glyph glyph-name="afii61289" unicode="&#x2113;" horiz-adv-x="552" 
d="M499 167l31 -31q-91 -157 -238 -157q-96 0 -143 45q-25 26 -37.5 61.5t-12.5 107.5v38l-65 -35l-17 42l82 51v139q0 101 13.5 157.5t49.5 100.5q66 83 158 83q69 0 104 -45t35 -112q0 -84 -43.5 -148t-141.5 -141v-71q0 -91 21 -132t73 -41q66 0 131 88zM274 488v-95
q40 47 61 95t21 124q0 109 -43 109q-27 0 -33 -43.5t-6 -189.5z" />
    <glyph glyph-name="trademark" unicode="&#x2122;" horiz-adv-x="1000" 
d="M259 678v-303q0 -22 11 -30.5t40 -10.5v-34h-224v34q29 2 40 10.5t11 30.5v303h-42q-47 0 -55 -54h-34v88h384v-88h-34q-8 54 -55 54h-42zM663 301l-128 283h-2v-175q0 -42 10.5 -57.5t40.5 -17.5v-34h-135v34q28 2 36 16.5t8 58.5v222q-2 20 -22 34t-44 15v32h163
l127 -263l138 263h139v-32q-29 -2 -40 -10.5t-11 -30.5v-264q0 -22 11 -30.5t40 -10.5v-34h-224v34q29 2 40 10.5t11 30.5v209h-2l-140 -283h-16z" />
    <glyph glyph-name="Omega" unicode="&#x2126;" horiz-adv-x="872" 
d="M832 202l-35 -202h-320l-12 30q34 67 52.5 105.5t42 117.5t23.5 144q0 271 -151 271q-73 0 -108.5 -63t-35.5 -210q0 -62 21 -136t41 -120t52 -109l-10 -30h-323l-30 202h45q19 -44 37 -58t58 -14h98q-41 25 -69 45.5t-62 54.5t-52 78t-18 96q0 143 99.5 228t260.5 85
t259.5 -83.5t98.5 -223.5q0 -47 -18 -88.5t-52.5 -77.5t-65 -60t-75.5 -54h115q36 0 53 14t35 58h46z" />
    <glyph glyph-name="estimated" unicode="&#x212e;" horiz-adv-x="884" 
d="M848 334h-659q-5 0 -5 -4v-200q0 -12 8 -22q103 -108 250 -108q157 0 262 121h59q-56 -66 -140.5 -104t-181.5 -38q-169 0 -288 107t-119 258q0 152 119 259t288 107t288 -107t119 -259v-10zM699 360v201q0 14 -10 24q-106 104 -247 104q-142 0 -248 -108q-10 -9 -10 -25
v-196q0 -6 5 -6h505q5 0 5 6z" />
    <glyph glyph-name="partialdiff" unicode="&#x2202;" horiz-adv-x="658" 
d="M309 444h1q39 0 74.5 -15t54.5 -41q10 53 14 116q4 97 -26 150q-31 51 -95 51q-74 0 -178 -87q-12 0 -30 22t-28 51t-2 47q27 13 44 19.5t53 13.5t79 7q175 0 271 -151q66 -107 66 -239q0 -146 -62 -251q-89 -158 -270 -158q-104 0 -167 59t-63 157q0 106 72 176
q74 73 192 73zM357 381h-1q-54 0 -87 -56q-44 -79 -44 -205q-2 -93 59 -93q46 0 89 100q35 82 54 203q-29 51 -70 51z" />
    <glyph glyph-name="uni2206" unicode="&#x2206;" horiz-adv-x="774" 
d="M734 0h-695v49l298 650l87 18l310 -668v-49zM506 81l-188 424l-185 -424h373z" />
    <glyph glyph-name="product" unicode="&#x220f;" horiz-adv-x="857" 
d="M825 727v-43q-71 -6 -87.5 -25t-16.5 -91v-490q0 -73 16.5 -92t87.5 -24v-45h-375v45q58 4 70 21.5t12 94.5v553q0 27 -7 33.5t-35 6.5h-127q-27 0 -33 -6.5t-6 -32.5v-554q0 -77 10.5 -94.5t64.5 -21.5v-45h-368v45q69 5 86 24.5t17 91.5v490q0 72 -17.5 91t-89.5 25v43
h798z" />
    <glyph glyph-name="summation" unicode="&#x2211;" horiz-adv-x="670" 
d="M645 169l-59 -262h-559v46l237 309l-230 418v47h550q3 -53 14 -208l-45 -11q-26 80 -48 120q-17 28 -38.5 38t-79.5 10h-131l163 -301l-245 -321h254q56 0 79 7t42 31t50 89z" />
    <glyph glyph-name="minus" unicode="&#x2212;" horiz-adv-x="600" 
d="M535 171h-470v128h470v-128z" />
    <glyph glyph-name="uni2215" unicode="&#x2215;" horiz-adv-x="167" 
d="M-73 -22h-94l406 734h95z" />
    <glyph glyph-name="uni2219" unicode="&#x2219;" horiz-adv-x="333" 
d="M166 330q39 0 67 -28t28 -67t-28 -67t-67 -28t-67 28t-28 67t28 67t67 28z" />
    <glyph glyph-name="radical" unicode="&#x221a;" horiz-adv-x="641" 
d="M639 890l-202 -1059l-44 -17l-237 548l-98 -43l-17 52l235 104l148 -363h2l146 790z" />
    <glyph glyph-name="infinity" unicode="&#x221e;" horiz-adv-x="824" 
d="M778 293v-2q0 -89 -53.5 -142.5t-126.5 -53.5q-50 0 -95.5 23t-91.5 90q-44 -56 -87.5 -84.5t-101.5 -28.5q-72 0 -124.5 52.5t-52.5 137.5q0 86 53.5 139.5t133.5 53.5q108 0 186 -107q1 1 13.5 15.5t16.5 18.5t17.5 17t21.5 18t22.5 14.5t27.5 13.5t30 7t35 3
q73 -1 124.5 -52t51.5 -133zM232 193h2q59 0 124 87q-20 30 -28.5 42t-25 29.5t-34 24t-39.5 6.5q-38 0 -62 -26t-24 -71q-1 -37 25 -64.5t62 -27.5zM593 382h-1q-26 0 -52 -17.5t-38.5 -32.5t-34.5 -44q41 -57 69 -76t63 -19t56.5 29t21.5 62q0 42 -22.5 70t-61.5 28z" />
    <glyph glyph-name="integral" unicode="&#x222b;" horiz-adv-x="480" 
d="M182 -36l-24 401q-7 119 6 210.5t36.5 142t57.5 82.5t62 41.5t57 9.5q37 0 67 -19.5t30 -51.5q0 -37 -23 -58t-53 -21q-21 0 -33.5 21.5t-20 42.5t-16.5 21q-7 0 -11 -5.5t-6.5 -21.5t-2 -43.5t2.5 -71.5l22 -374q14 -247 -53.5 -374t-173.5 -127q-38 0 -67 22t-29 52
q-1 35 29 59t62 24q18 0 28.5 -23t17.5 -46.5t16 -23.5q16 0 20 34.5t-1 96.5z" />
    <glyph glyph-name="approxequal" unicode="&#x2248;" horiz-adv-x="606" 
d="M505 488l68 -68q-35 -54 -78.5 -83t-84.5 -29q-56 0 -121 40q-53 32 -87 32q-22 0 -42.5 -11.5t-33 -24t-32.5 -35.5l-67 67q26 46 76 78.5t102 32.5q57 0 110 -33q35 -23 52 -30.5t37 -7.5q47 0 101 72zM505 276l68 -68q-34 -53 -77.5 -82.5t-86.5 -29.5q-52 0 -120 40
q-54 33 -87 33q-23 0 -44 -12t-32 -23.5t-32 -36.5l-67 67q26 45 76.5 78t101.5 33q55 0 109 -32q5 -3 21 -13.5t23 -14.5t20 -8t25 -4q28 0 49.5 17t52.5 56z" />
    <glyph glyph-name="notequal" unicode="&#x2260;" horiz-adv-x="606" 
d="M460 533l-35 -79h131v-105h-174l-54 -125h228v-105h-273l-51 -118l-85 37l36 81h-133v105h177l54 125h-231v105h274l51 115z" />
    <glyph glyph-name="lessequal" unicode="&#x2264;" horiz-adv-x="606" 
d="M555 126l-503 227v113l502 225v-117l-392 -163v-3l393 -164v-118zM557 -16h-506v108h506v-108z" />
    <glyph glyph-name="greaterequal" unicode="&#x2265;" horiz-adv-x="606" 
d="M54 691l502 -226v-113l-502 -226v118l393 165v2l-393 163v117zM552 -16h-500v108h500v-108z" />
    <glyph glyph-name="lozenge" unicode="&#x25ca;" horiz-adv-x="672" 
d="M626 342l-225 -420h-131l-225 420l228 424h128zM504 342l-165 322h-5l-166 -321l167 -325h3z" />
    <glyph glyph-name="fi" unicode="&#xfb01;" horiz-adv-x="722" 
d="M283 470h235q55 0 77 18h61q-9 -37 -9 -134v-200q0 -59 12 -79.5t45 -22.5v-62q-5 0 -47.5 5t-106.5 5q-63 0 -107.5 -5t-53.5 -5v62q34 5 48 22.5t14 57.5v186q0 48 -17 65t-60 17h-91v-244q0 -57 13 -78t46 -26v-62q-9 0 -52 5t-105 5t-105 -5t-52 -5v62q32 1 45.5 24
t13.5 86v238h-59v70h59q0 142 81 234t222 92q101 0 161.5 -30t60.5 -90q0 -29 -25.5 -51.5t-54.5 -22.5q-28 0 -54 19t-43 41t-37 41t-37 19q-40 0 -59 -34.5t-19 -123.5v-94z" />
    <glyph glyph-name="fl" unicode="&#xfb02;" horiz-adv-x="722" 
d="M579 746l29 50h70q-27 -70 -27 -211v-437q0 -51 11 -68.5t42 -27.5v-62q-10 0 -53.5 5t-103.5 5q-61 0 -103.5 -5t-50.5 -5v62q36 9 47.5 27.5t14.5 74.5v409q0 155 -81 155q-75 0 -86 -123v-125h109v-70h-109v-244q0 -57 13 -79.5t44 -24.5v-62q-9 0 -52.5 5t-105.5 5
q-63 0 -106.5 -5t-52.5 -5v62q32 1 48 25t16 85v238h-64v70h64q2 137 86 231.5t219 94.5q48 0 87.5 -12t94.5 -38z" />
    <glyph glyph-name="a.superior" horiz-adv-x="356" 
d="M372 499l14 -24q-42 -45 -108 -45q-24 0 -43.5 10.5t-25.5 29.5q-18 -17 -56 -29q-33 -11 -63 -11q-37 0 -59.5 16.5t-22.5 48.5q0 48 57 78.5t144 37.5q0 77 -48 77q-25 0 -42.5 -10.5t-17.5 -22.5q0 -13 8 -20l-32 -18l-43 53q75 64 179 64q55 0 85.5 -28t30.5 -78
q0 -25 -3.5 -52t-3.5 -50q0 -22 6 -30t20 -8q15 0 24 11zM158 482q25 0 37.5 21t13.5 74q-83 -18 -83 -62q0 -14 8.5 -23.5t23.5 -9.5z" />
    <glyph glyph-name="o.superior" horiz-adv-x="389" 
d="M208 734q75 0 126 -40t51 -108q0 -76 -58.5 -116t-147.5 -40q-75 0 -125.5 40t-50.5 108q0 76 58 116t147 40zM135 602q0 -55 20.5 -94.5t48.5 -39.5q22 0 35.5 24.5t13.5 69.5q0 55 -20.5 94.5t-49.5 39.5q-48 0 -48 -94z" />
    <glyph glyph-name="one.superior" horiz-adv-x="400" 
d="M251 719h42q-10 -65 -10 -92v-229q0 -53 16 -65.5t77 -12.5v-42q-10 0 -55 3.5t-106 3.5q-62 0 -106.5 -3.5t-54.5 -3.5v42h24q31 0 43.5 7t19 33t6.5 86v127q0 38 -33 38q-11 0 -60 -7l-5 37q135 26 202 78z" />
    <glyph glyph-name="two.superior" horiz-adv-x="400" 
d="M37 272l-15 30q114 77 166.5 138.5t52.5 127.5q0 35 -22 61.5t-58 26.5q-25 0 -43 -14t-18 -35q0 -19 12 -27q-15 -22 -39 -22q-22 0 -32.5 14.5t-10.5 34.5q0 39 46 72t127 33q75 0 125.5 -33.5t50.5 -92.5q0 -30 -12 -56t-38 -49t-44.5 -36.5t-55 -35t-46.5 -28.5v-2
h101q35 0 51.5 9t26.5 29l33 -13q-5 -16 -33 -68t-28 -69q-27 18 -74 18h-157q-38 0 -66 -13z" />
    <glyph glyph-name="three.superior" horiz-adv-x="400" 
d="M157 496l-9 34q36 2 61 20t25 50q0 30 -18.5 47t-51.5 17q-22 0 -38 -12t-16 -30q0 -16 9 -26q-13 -16 -36 -16q-17 0 -28 11t-11 27q0 38 45.5 66t125.5 28q68 0 107.5 -27t39.5 -71q0 -38 -30.5 -60t-73.5 -26v-2q57 0 94.5 -28t37.5 -80q0 -61 -60 -103.5t-159 -42.5
q-66 0 -104.5 19t-38.5 56q0 16 11.5 28t28.5 12q19 0 32 -12q-6 -8 -6 -19q0 -19 18 -29.5t46 -10.5q43 0 66.5 26t23.5 66q0 53 -23 70.5t-68 17.5z" />
    </font>
</defs>
</svg>
